<?xml version="1.0" encoding="UTF-8"?>
<!DOCTYPE svg PUBLIC "-//W3C//DTD SVG 1.1//EN" "http://www.w3.org/Graphics/SVG/1.1/DTD/svg11.dtd">
<!-- Creator: CorelDRAW 2020 (64 Bit) -->
<svg xmlns="http://www.w3.org/2000/svg" xml:space="preserve" width="63mm" height="88mm" version="1.1" style="shape-rendering:geometricPrecision; text-rendering:geometricPrecision; image-rendering:optimizeQuality; fill-rule:evenodd; clip-rule:evenodd"
viewBox="0 0 1955.17 2731.03"
 xmlns:xlink="http://www.w3.org/1999/xlink"
 xmlns:xodm="http://www.corel.com/coreldraw/odm/2003">
 <defs>
  <style type="text/css">
   <![CDATA[
    .fil0 {fill:none}
    .fil1 {fill:white}
   ]]>
  </style>
 </defs>
 <g id="Camada_x0020_1">
  <metadata id="CorelCorpID_0Corel-Layer"/>
  <rect class="fil0" x="0" y="0" width="1955.17" height="2731.03"/>
  <g id="_2229323208272">
   <path class="fil1" d="M264.81 74.28l1422.42 0c3.76,0 6.84,3.19 6.84,7.09l0 63.4c0,3.9 -3.08,7.09 -6.84,7.09l-1422.42 0c-3.76,0 -6.84,-3.19 -6.84,-7.09l0 -63.4c0,-3.9 3.08,-7.09 6.84,-7.09z"/>
   <polygon class="fil1" points="182.13,62.07 204.22,74.82 226.3,87.57 226.3,113.07 226.3,138.58 204.22,151.33 182.13,164.08 160.05,151.33 137.96,138.58 137.96,113.07 137.96,87.57 160.05,74.82 "/>
   <path class="fil1" d="M1403.47 2601.03l39.23 -67.95 159.8 0 29.63 51.32c5.59,-26.54 19.08,-56.21 45.53,-56.21 31.77,0 44.17,40.35 44.28,66.16 0.02,4.88 -3.7,8.93 -8.56,9.32 -4.86,0.39 -9.18,-3 -9.95,-7.82 -1.13,-7.13 -7.7,-33.44 -17.76,-33.44 -4.77,0 -9.46,7.91 -11.22,11.48 -3.34,6.77 -5.46,14.72 -6.65,22.65 1.98,-1.06 4.16,-1.34 6.44,-0.81l7.94 1.85c0.19,0.04 0.37,0.09 0.55,0.15l1 -1.13c2.19,-2.48 5.26,-3.56 8.53,-3.01 3.26,0.55 5.81,2.59 7.06,5.65l4.88 11.91c1.68,4.11 0.31,8.7 -3.35,11.21l-4.02 2.76c0.94,0.37 1.84,0.9 2.66,1.59 2.77,2.32 3.91,5.78 3.07,9.29l-3.3 13.79c-0.75,3.13 -2.84,5.48 -5.87,6.59l-43.9 15.98c-2.14,0.78 -4.23,0.78 -6.37,0l-35.17 -12.8 -5.46 9.45 -159.8 0 -39.23 -67.95z"/>
   <path class="fil1" d="M1008.28 2601.03l39.23 -67.95 159.8 0 15 25.98 28.49 1.71 14.96 -29.93c1.61,-3.21 4.69,-5.11 8.28,-5.11 3.59,-0 6.67,1.9 8.28,5.11l14.96 29.93 33.41 -2c3.58,-0.21 6.77,1.5 8.57,4.61 1.8,3.11 1.69,6.73 -0.29,9.73l-18.44 27.92 18.44 27.93c1.98,3 2.09,6.62 0.29,9.73 -1.8,3.11 -4.98,4.83 -8.57,4.61l-33.41 -2 -14.96 29.94c-1.61,3.21 -4.69,5.11 -8.28,5.11 -3.59,0 -6.67,-1.9 -8.28,-5.11l-14.96 -29.93 -28.49 1.71 -15 25.99 -159.8 0 -39.23 -67.95z"/>
   <path class="fil1" d="M217.88 2601.03l39.23 -67.95 159.8 0 34.76 60.2c3.05,-5.23 6.12,-10.46 9.19,-15.68 4.8,-8.13 9.62,-16.27 14.59,-24.3 1.66,-2.68 3.33,-5.37 5.11,-7.97 0.57,-0.83 1.16,-1.67 1.8,-2.45 1.85,-2.25 4.39,-3.74 7.13,-3.95l14.23 -3.17c4.98,-1.11 9.94,2.05 11.05,7.02l3.46 15.55c0.42,1.87 0.29,3.58 -0.41,5.37 -1.68,4.31 -5.67,10.18 -8.18,14.13 -4.57,7.18 -9.28,14.29 -14,21.38 -4.19,6.28 -8.4,12.54 -12.64,18.78l5.71 3.63c2.07,1.06 3.76,2.41 4.89,4.6 2.12,4.09 0.94,9.03 -2.79,11.74l-5.45 3.94c-2.52,1.96 -5.97,5.05 -9.08,5.74 -2.49,0.55 -4.82,0.14 -6.97,-1.22l-9.47 -6.02 -10.33 16.4 0.44 1.96c1.11,4.97 -2.05,9.94 -7.02,11.05l-10.37 2.31c-4.97,1.11 -9.94,-2.05 -11.04,-7.02l-0.65 -2.93 -3.94 6.82 -159.8 0 -39.23 -67.95z"/>
   <path class="fil1" d="M620.2 2601.03l35.67 61.78 152.67 0 19.06 -33.01c8.02,16.8 24.84,30.76 40.28,38.38 2.69,1.33 5.81,1.33 8.51,0 21.21,-10.48 45.06,-32.91 45.06,-58.24l0 -9.93c0,-3.49 -1.87,-6.56 -4.67,-8.24 1.22,-2.44 2.44,-4.89 3.66,-7.33 0.67,-1.34 1.01,-2.79 1.01,-4.29l0 -19.85c0,-1.47 -0.33,-2.91 -0.98,-4.24 -8.39,-17.07 -30.29,-25.22 -48.33,-25.22 -18.04,0 -39.92,8.15 -48.31,25.22 -0.65,1.33 -0.98,2.76 -0.98,4.24l0 3.68 -14.29 -24.75 -152.67 0 -35.67 61.78z"/>
   <path class="fil1" d="M1873.35 1660.26l-1791.53 0c-10.87,0 -19.75,8.89 -19.75,19.75l0 772.71c0,10.87 8.89,19.75 19.75,19.75l1791.53 0c10.87,0 19.75,-8.89 19.75,-19.75l0 -772.71c0,-10.87 -8.89,-19.75 -19.75,-19.75z"/>
   <polygon class="fil1" points="1716.42,113.07 1766.81,62.68 1817.21,113.07 1766.81,163.47 "/>
  </g>
 </g>
</svg>
