<?xml version="1.0" encoding="UTF-8"?>
<!DOCTYPE svg PUBLIC "-//W3C//DTD SVG 1.1//EN" "http://www.w3.org/Graphics/SVG/1.1/DTD/svg11.dtd">
<!-- Creator: CorelDRAW 2020 (64 Bit) -->
<svg xmlns="http://www.w3.org/2000/svg" xml:space="preserve" width="63mm" height="88mm" version="1.1" style="shape-rendering:geometricPrecision; text-rendering:geometricPrecision; image-rendering:optimizeQuality; fill-rule:evenodd; clip-rule:evenodd"
viewBox="0 0 6285.77 8780.13"
 xmlns:xlink="http://www.w3.org/1999/xlink"
 xmlns:xodm="http://www.corel.com/coreldraw/odm/2003">
 <defs>
  <style type="text/css">
   <![CDATA[
    .fil0 {fill:none}
    .fil1 {fill:black}
    .fil2 {fill:#FFC5C5}
   ]]>
  </style>
   <clipPath id="id0">
    <path d="M66.96 5026.91l6151.86 0c36.84,0 66.96,30.12 66.96,66.96l0 3604.46c0,36.84 -30.12,66.96 -66.96,66.96l-6151.86 0c-36.84,0 -66.96,-30.12 -66.96,-66.96l0 -3604.46c0,-36.84 30.12,-66.96 66.96,-66.96z"/>
   </clipPath>
    <mask id="id1">
  <linearGradient id="id2" gradientUnits="userSpaceOnUse" x1="6285.77" y1="5687.24" x2="6285.82" y2="5093.87">
   <stop offset="0" style="stop-opacity:1; stop-color:white"/>
   <stop offset="1" style="stop-opacity:0; stop-color:white"/>
  </linearGradient>
     <rect style="fill:url(#id2)" y="5026.91" width="6285.77" height="3738.38"/>
    </mask>
   <clipPath id="id3">
    <path d="M66.96 5026.91l6151.86 0c36.84,0 66.96,30.12 66.96,66.96l0 3604.46c0,36.84 -30.12,66.96 -66.96,66.96l-6151.86 0c-36.84,0 -66.96,-30.12 -66.96,-66.96l0 -3604.46c0,-36.84 30.12,-66.96 66.96,-66.96z"/>
   </clipPath>
    <clipPath id="id4">
     <path d="M66.96 5026.91l6151.86 0c36.84,0 66.96,30.12 66.96,66.96l0 3604.46c0,36.84 -30.12,66.96 -66.96,66.96l-6151.86 0c-36.84,0 -66.96,-30.12 -66.96,-66.96l0 -3604.46c0,-36.84 30.12,-66.96 66.96,-66.96z"/>
    </clipPath>
    <clipPath id="id5">
     <path d="M66.96 5026.91l6151.86 0c36.84,0 66.96,30.12 66.96,66.96l0 3604.46c0,36.84 -30.12,66.96 -66.96,66.96l-6151.86 0c-36.84,0 -66.96,-30.12 -66.96,-66.96l0 -3604.46c0,-36.84 30.12,-66.96 66.96,-66.96z"/>
    </clipPath>
 </defs>
 <g id="Camada_x0020_1">
  <metadata id="CorelCorpID_0Corel-Layer"/>
  <rect class="fil0" x="0" y="0" width="6285.77" height="8780.13"/>
  <g style="clip-path:url(#id0)">
   <polygon class="fil1" style="mask:url(#id1)" points="-0,5026.91 6285.77,5026.91 6285.77,8765.29 -0,8765.29 "/>
  </g>
  <g style="clip-path:url(#id3)">
   <g id="_2813777374032">
   </g>
   <g style="clip-path:url(#id4)">
    <image x="-468.32" y="4943.6" width="7224.44" height="3898.04" xlink:href="Espaço de Textos_Images\Espaço de Textos_ImgID1.png"/>
   </g>
   <g style="clip-path:url(#id5)">
   </g>
  </g>
  <path class="fil0" d="M66.96 5026.91l6151.86 0c36.84,0 66.96,30.12 66.96,66.96l0 3604.46c0,36.84 -30.12,66.96 -66.96,66.96l-6151.86 0c-36.84,0 -66.96,-30.12 -66.96,-66.96l0 -3604.46c0,-36.84 30.12,-66.96 66.96,-66.96z"/>
  <path class="fil2" d="M851.36 243.24l4573.01 0c12.1,0 22,9.9 22,22l0 196.58c0,12.1 -9.9,22 -22,22l-4573.01 0c-12.1,0 -22,-9.9 -22,-22l0 -196.58c0,-12.1 9.9,-22 22,-22z"/>
  <polygon class="fil2" points="585.54,199.55 656.54,240.55 727.55,281.53 727.55,363.53 727.55,445.51 656.54,486.51 585.54,527.51 514.55,486.51 443.54,445.51 443.54,363.53 443.54,281.53 514.55,240.55 "/>
  <path class="fil2" d="M4512.09 8362.18l126.13 -218.47 513.74 0 95.27 165.01c17.97,-85.34 61.34,-180.71 146.37,-180.71 102.14,0 142.02,129.72 142.35,212.7 0.06,15.68 -11.89,28.7 -27.52,29.95 -15.63,1.27 -29.52,-9.66 -31.98,-25.14 -3.63,-22.91 -24.76,-107.52 -57.1,-107.52 -15.35,0 -30.42,25.43 -36.08,36.91 -10.75,21.78 -17.54,47.31 -21.39,72.81 6.36,-3.41 13.38,-4.31 20.7,-2.61l25.51 5.95c0.6,0.14 1.2,0.3 1.78,0.47l3.22 -3.64c7.05,-7.97 16.91,-11.45 27.41,-9.68 10.5,1.78 18.67,8.31 22.71,18.15l15.7 38.28c5.41,13.2 1,27.98 -10.77,36.05l-12.92 8.86c3.02,1.19 5.91,2.89 8.55,5.12 8.9,7.47 12.57,18.59 9.87,29.88l-10.6 44.33c-2.41,10.08 -9.14,17.63 -18.88,21.17l-141.14 51.37c-6.88,2.5 -13.59,2.5 -20.47,0l-113.06 -41.15 -17.54 30.38 -513.74 0 -126.13 -218.47z"/>
  <path class="fil2" d="M3241.55 8362.18l126.13 -218.47 513.74 0 48.23 83.53 91.6 5.5 48.11 -96.23c5.17,-10.33 15.08,-16.44 26.62,-16.44 11.54,-0.01 21.44,6.12 26.61,16.44l48.1 96.23 107.42 -6.44c11.52,-0.69 21.77,4.82 27.55,14.82 5.78,10.01 5.43,21.64 -0.95,31.27l-59.28 89.78 59.29 89.79c6.36,9.65 6.7,21.28 0.94,31.28 -5.79,10 -16.02,15.51 -27.56,14.82l-107.4 -6.45 -48.11 96.24c-5.17,10.33 -15.07,16.44 -26.61,16.44 -11.55,0 -21.44,-6.12 -26.62,-16.44l-48.11 -96.23 -91.6 5.49 -48.23 83.54 -513.74 0 -126.13 -218.47z"/>
  <path class="fil2" d="M700.47 8362.18l126.13 -218.47 513.74 0 111.75 193.54c9.82,-16.82 19.67,-33.63 29.55,-50.42 15.43,-26.14 30.92,-52.3 46.9,-78.11 5.33,-8.6 10.72,-17.27 16.43,-25.61 1.84,-2.68 3.73,-5.37 5.8,-7.89 5.94,-7.23 14.1,-12.02 22.91,-12.69l45.74 -10.19c16,-3.57 31.95,6.58 35.51,22.58l11.12 49.98c1.34,6.02 0.93,11.51 -1.31,17.25 -5.39,13.86 -18.23,32.72 -26.3,45.43 -14.7,23.1 -29.82,45.96 -45.02,68.73 -13.46,20.18 -27.01,40.32 -40.65,60.38l18.37 11.67c6.64,3.42 12.09,7.75 15.72,14.79 6.8,13.16 3.02,29.04 -8.97,37.74l-17.52 12.68c-8.11,6.32 -19.21,16.23 -29.19,18.45 -7.99,1.78 -15.5,0.46 -22.41,-3.93l-30.46 -19.37 -33.22 52.72 1.41 6.31c3.57,15.99 -6.58,31.96 -22.57,35.51l-33.32 7.42c-15.99,3.56 -31.95,-6.58 -35.5,-22.57l-2.1 -9.42 -12.67 21.94 -513.74 0 -126.13 -218.47z"/>
  <path class="fil2" d="M1993.92 8362.18l114.68 198.63 490.84 0 61.27 -106.13c25.77,54 79.87,98.88 129.5,123.4 8.66,4.28 18.68,4.28 27.35,0 68.2,-33.7 144.85,-105.81 144.85,-187.24l0 -31.92c0,-11.23 -6.03,-21.09 -15.03,-26.48 3.92,-7.85 7.84,-15.71 11.76,-23.56 2.16,-4.31 3.26,-8.98 3.26,-13.8l0 -63.81c0,-4.74 -1.07,-9.36 -3.16,-13.62 -26.98,-54.87 -97.37,-81.08 -155.37,-81.08 -57.99,0 -128.35,26.21 -155.33,81.08 -2.1,4.26 -3.16,8.88 -3.16,13.62l0 11.84 -45.95 -79.58 -490.84 0 -114.68 198.63z"/>
  <path class="fil2" d="M6022.73 5337.64l-5759.68 0c-34.93,0 -63.5,28.57 -63.5,63.5l0 2484.23c0,34.93 28.57,63.5 63.5,63.5l5759.68 0c34.93,0 63.5,-28.57 63.5,-63.5l0 -2484.23c0,-34.93 -28.57,-63.5 -63.5,-63.5z"/>
  <polygon class="fil2" points="5518.19,363.52 5680.21,201.5 5842.24,363.52 5680.21,525.54 "/>
 </g>
</svg>
