<?xml version="1.0" encoding="UTF-8"?>
<!DOCTYPE svg PUBLIC "-//W3C//DTD SVG 1.1//EN" "http://www.w3.org/Graphics/SVG/1.1/DTD/svg11.dtd">
<!-- Creator: CorelDRAW 2020 (64 Bit) -->
<svg xmlns="http://www.w3.org/2000/svg" xml:space="preserve" width="63mm" height="88mm" version="1.1" style="shape-rendering:geometricPrecision; text-rendering:geometricPrecision; image-rendering:optimizeQuality; fill-rule:evenodd; clip-rule:evenodd"
viewBox="0 0 1955.17 2731.03"
 xmlns:xlink="http://www.w3.org/1999/xlink"
 xmlns:xodm="http://www.corel.com/coreldraw/odm/2003">
 <defs>
  <style type="text/css">
   <![CDATA[
    .fil0 {fill:none}
    .fil1 {fill:white}
   ]]>
  </style>
 </defs>
 <g id="Camada_x0020_1">
  <metadata id="CorelCorpID_0Corel-Layer"/>
  <rect class="fil0" x="0" y="0" width="1955.17" height="2731.03"/>
  <g id="_2229406587984">
   <path class="fil1" d="M1362.63 167.54l14.33 24.83 -14.33 24.82c-299.11,-0.14 -474.1,-0.11 -773.21,0l-14.33 -24.83 14.33 -24.82c299.1,0.13 474.1,0.07 773.21,0z"/>
   <path class="fil1" d="M1259.06 2564.94l14.98 -29.96 15.06 30.13c-0.09,0 -0.17,0 -0.26,0l-0.01 0c-0.08,0 -0.17,0 -0.25,0.01l-0.01 0c-5.38,0.27 -9.65,4.71 -9.65,10.16 0,2.05 0.61,3.95 1.64,5.54l0 0c1.7,2.61 4.57,4.39 7.87,4.61l0 0c0.22,0.02 0.44,0.02 0.66,0.02 5.62,0 10.17,-4.55 10.17,-10.17 0,-1.93 -0.54,-3.73 -1.47,-5.26l33.44 -2.01 -18.56 28.11c-0.04,-0.07 -0.09,-0.15 -0.13,-0.22l-0 -0.01c-0.04,-0.07 -0.09,-0.14 -0.13,-0.21 -2.92,-4.52 -8.91,-6.01 -13.62,-3.29 -1.77,1.02 -3.12,2.5 -3.98,4.2l0 0c-1.41,2.78 -1.52,6.16 -0.05,9.13l-0 0c0.1,0.19 0.2,0.38 0.31,0.57 2.81,4.87 9.03,6.53 13.89,3.72 1.67,-0.97 2.96,-2.33 3.83,-3.9l18.46 27.95 -33.62 -2.02c0.04,-0.07 0.08,-0.15 0.12,-0.22l0 -0.01c0.04,-0.07 0.08,-0.15 0.12,-0.22l0 -0.01c2.45,-4.79 0.74,-10.71 -3.97,-13.43 -1.77,-1.02 -3.73,-1.45 -5.63,-1.35l-0.08 0.01 -0.07 0 0 0c-0.09,0.01 -0.19,0.02 -0.28,0.02l-0.01 0 -0.04 0c-2.94,0.3 -5.71,1.87 -7.45,4.48l0 0 -0.05 0.08 -0.01 0.02 -0 0 -0.01 0.02 -0.11 0.17 -0.01 0.02 -0.01 0.01 -0.01 0.01c-0.04,0.07 -0.08,0.14 -0.13,0.22 -2.81,4.86 -1.14,11.09 3.72,13.89 0.07,0.04 0.15,0.09 0.23,0.13l0.01 0 0.19 0.1 0.07 0.04 0.18 0.09 0.02 0.01 0.02 0.01c0.15,0.07 0.29,0.14 0.43,0.2l0.02 0.01 0.03 0.02 0.2 0.08 0.01 0 0.04 0.02 0.16 0.06 0.03 0.01 0.01 0 0.22 0.08 0.01 0 0.06 0.02 0.15 0.05 0.06 0.02 0.2 0.06 0.01 0 0.07 0.02 0.14 0.04 0.03 0.01 0.01 0 0.03 0.01 0.18 0.04 0.03 0.01 0 0 0.03 0.01 0.14 0.03 0.07 0.02 0.01 0 0.02 0.01 0.19 0.03 0.03 0.01 0.02 0 0.01 0 0.19 0.03 0.03 0.01 0.02 0 0 0 0.16 0.02 0.06 0.01 0.03 0.01 0.08 0.01 0.08 0.01 0.05 0 0.04 0 0.17 0.02 0.04 0 0.04 0 0.17 0.01 0.07 0.01 0.18 0.01 0.06 0 0.15 0 0.12 0 0 0 0.09 0 0.08 -0 -14.98 29.96 -15.06 -30.13 0 0 0.01 0 0 0 0 0 0.01 0 0 0c0.08,0 0.15,0 0.23,-0l0 0 0.01 0 0 0 0 0 0 0 0.01 0 0.2 -0.01 0 0 0 -0 0 0 0.01 0 0 0 0 0 0.01 0 0 0 0 0 0 0 0.01 0c0.24,-0.01 0.48,-0.03 0.72,-0.06l0.02 -0 0.15 -0.02 0.11 -0.02 0.11 -0.02 0.14 -0.02 0.14 -0.02 0.1 -0.02 0.16 -0.03 0.08 -0.02 0.17 -0.04 0.07 -0.02 0.13 -0.04 0.13 -0.03 0.09 -0.02 0.15 -0.04 0.11 -0.03 0.12 -0.04 0.12 -0.04 0.11 -0.04 0.12 -0.05 0.11 -0.04 0.12 -0.05 0.11 -0.05 0.11 -0.05 0.1 -0.04 0.14 -0.07 0.07 -0.03 0.15 -0.07 0.07 -0.04 0.13 -0.07 0.11 -0.06 0.11 -0.06 0.1 -0.06 0.11 -0.06 0.1 -0.06 0.11 -0.07 0.12 -0.07 0.08 -0.05 0.11 -0.08 0.09 -0.06 0.12 -0.08 0.07 -0.05 0.12 -0.09 0.08 -0.06 0.09 -0.07 0.1 -0.08 0.11 -0.09 0.07 -0.06 0.09 -0.07 0.11 -0.09 0 -0 0.16 -0.14 0 -0 0.11 -0.1 0.07 -0.07 0.01 -0.01 0.16 -0.16 0.01 -0 0.16 -0.17 0.16 -0.17 0.01 -0 0.15 -0.17 0.01 -0.01 0.05 -0.06c0.09,-0.1 0.17,-0.2 0.25,-0.31l0.01 -0.01 0.13 -0.16 0.01 -0.02 0.07 -0.1 0.07 -0.1 0.06 -0.08 0.08 -0.12 0.04 -0.06 0.09 -0.14 0.04 -0.06 0.1 -0.16 0.02 -0.03 0.1 -0.16 0.04 -0.07 0.08 -0.15 0.03 -0.05 0.08 -0.16 0.04 -0.07 0.07 -0.13 0.05 -0.11 0.05 -0.1 0.06 -0.13 0.04 -0.1 0.05 -0.11 0.05 -0.13 0.04 -0.1 0.05 -0.12 0.04 -0.12 0.04 -0.11 0.04 -0.12 0.03 -0.11 0.04 -0.13 0.04 -0.12 0.03 -0.1 0.03 -0.13 0.03 -0.12 0.03 -0.12 0.03 -0.11 0.03 -0.13 0.02 -0.12 0.02 -0.11 0.02 -0.12 0.02 -0.15 0.01 -0.09 0.02 -0.13 0.02 -0.14 0.01 -0.09 0.02 -0.16 0.01 -0.1 0.01 -0.15 0 -0.01 0.02 -0.23c0,-0.09 0.01,-0.17 0.01,-0.26l0 -0.01c0,-0.09 0,-0.17 0,-0.25 0,-0.18 -0,-0.35 -0.01,-0.52l0 -0.01c-0,-0.08 -0.01,-0.16 -0.02,-0.24l-0 -0.03 -0.02 -0.22 -0 -0.02 0 -0.02 -0.02 -0.21 -0 -0.03 0 -0.01 -0.03 -0.23 0 -0.02 -0.01 -0.03c-0.01,-0.07 -0.02,-0.14 -0.03,-0.2l-0 -0.02 0 -0.01c-0.02,-0.08 -0.03,-0.15 -0.04,-0.23l-0.01 -0.02c-0.02,-0.08 -0.03,-0.15 -0.05,-0.23l-0 -0.01 0 -0.01 -0.05 -0.2 -0.02 -0.07 -0.05 -0.2 -0.01 -0.02 0 -0 -0.01 -0.02 -0.06 -0.2 -0.01 -0.02 -0.02 -0.05 -0.05 -0.17 -0.01 -0.01 -0 -0.01 -0.07 -0.19 -0.01 -0.03 -0.01 -0.02c-0.05,-0.14 -0.11,-0.28 -0.17,-0.42l-0.02 -0.06 -0.07 -0.16 -0.01 -0.02 -0.01 -0.03 -0.08 -0.17 -0 -0.01 -0.01 -0.02 -0.01 -0.02 -0.09 -0.18 -0.01 -0.02 -0.11 -0.2 -0 -0 -0.01 -0.01 -0.09 -0.16 -0.02 -0.04 -0.01 -0.02 -0.1 -0.16 -0.02 -0.03 -0 -0 -0.02 -0.03 -0.09 -0.14 -0.02 -0.03 -0.02 -0.02 -0.02 -0.04 -0.08 -0.12 -0.01 -0.01 -0.06 -0.08 -0.04 -0.05c-1.64,-2.35 -4.24,-3.97 -7.23,-4.3l0 0c-0.15,-0.02 -0.31,-0.03 -0.46,-0.04l0 -0c-0.22,-0.01 -0.44,-0.02 -0.66,-0.02 -5.62,0 -10.17,4.55 -10.17,10.17 0,1.93 0.53,3.73 1.46,5.26l-33.44 2 18.56 -28.1c0.04,0.07 0.09,0.15 0.13,0.22l0 0c0.04,0.07 0.09,0.14 0.13,0.21 2.92,4.52 8.91,6.01 13.63,3.28 1.77,-1.02 3.12,-2.5 3.98,-4.19l0 0c1.41,-2.78 1.52,-6.16 0.05,-9.13l0 0c-0.1,-0.19 -0.2,-0.38 -0.31,-0.57 -2.81,-4.86 -9.03,-6.53 -13.89,-3.72 -1.67,0.96 -2.96,2.33 -3.83,3.9l-18.46 -27.96 33.62 2.02c-0.04,0.07 -0.08,0.15 -0.12,0.22l-0 0c-0.04,0.07 -0.08,0.15 -0.12,0.22l-0 0.01c-2.45,4.79 -0.74,10.71 3.97,13.43 1.77,1.02 3.72,1.45 5.63,1.35l0 0c3.11,-0.17 6.09,-1.77 7.92,-4.52l0 -0 0.06 -0.08 0.01 -0.02 0 -0 0.01 -0.02 0.11 -0.17 0.01 -0.02 0.01 -0.01 0.01 -0.01c0.04,-0.07 0.09,-0.14 0.13,-0.22 2.81,-4.87 1.14,-11.09 -3.72,-13.89 -0.07,-0.04 -0.15,-0.09 -0.23,-0.13l-0.01 -0c-0.07,-0.04 -0.13,-0.07 -0.2,-0.11l-0.02 -0.01 -0.01 -0.01 -0.01 -0.01 -0.19 -0.09 -0.02 -0.01 -0.02 -0.01c-0.14,-0.07 -0.29,-0.13 -0.43,-0.19l-0.02 -0.01 -0.03 -0.01 -0.19 -0.08 -0.02 -0.01 -0.04 -0.02 -0.16 -0.06 -0.03 -0.01 -0.01 0 -0.23 -0.08 -0.02 -0.01 -0.19 -0.06 -0.07 -0.02 -0.2 -0.06 -0.01 -0 -0.07 -0.02 -0.16 -0.04 -0.01 -0 -0.01 -0 -0.02 -0.01 -0.2 -0.04 -0.02 -0.01 -0 0 -0.03 -0.01 -0.18 -0.04 -0.03 -0.01 -0.01 -0 -0.02 -0 -0.2 -0.04 -0.02 -0 -0.02 -0 -0.01 0 -0.2 -0.03 -0.02 -0 -0.02 -0 -0.17 -0.02 -0.05 -0.01 -0.03 -0 -0.08 -0.01 -0.08 -0.01 -0.05 -0.01 -0.03 -0 -0.17 -0.01 -0.04 -0 -0.02 -0 -0.2 -0.01 -0.07 -0 -0.18 -0.01 -0.06 -0 -0.15 0 -0.12 0 -0 0 -0.08 0 -0.08 0z"/>
   <path class="fil1" d="M182.13 154.81l2.15 -0.8c1.01,-0.37 1.91,-0.98 2.77,-1.54 0.99,-0.64 1.97,-1.3 2.94,-1.96 1.43,-0.97 2.85,-1.96 4.28,-2.94 1.21,-0.83 2.27,-1.52 3.01,-2.72 2.05,-3.32 0.2,-10.48 -0.65,-13.46 -0.25,0.97 -0.48,2.05 -0.76,3.31 -0.16,0.72 -0.28,2.21 -0.39,2.94 -0.1,0.62 -0.2,1.45 -0.55,2.01 -0.53,0.85 -1.47,1.43 -2.35,2.03l-2.45 1.69c-0.27,-1.45 -0.67,-2.79 -1.2,-3.85 -0.83,1.41 -1.31,3.91 -1.48,5.67 -0.67,0.45 -1.34,0.9 -2.03,1.34 -0.62,0.4 -1.51,1 -2.23,1.27l-1.08 0.4 -1.08 -0.4c-0.71,-0.26 -1.6,-0.86 -2.23,-1.27 -0.68,-0.44 -1.36,-0.89 -2.03,-1.34 -0.16,-1.76 -0.64,-4.26 -1.47,-5.67 -0.54,1.05 -0.94,2.4 -1.2,3.85l-2.45 -1.69c-0.87,-0.6 -1.82,-1.17 -2.34,-2.03 -0.35,-0.57 -0.46,-1.39 -0.55,-2.01 -0.11,-0.72 -0.23,-2.22 -0.39,-2.94 -0.28,-1.26 -0.51,-2.34 -0.76,-3.31 -0.85,2.99 -2.7,10.14 -0.65,13.46 0.74,1.2 1.81,1.89 3.01,2.72 1.43,0.98 2.85,1.96 4.28,2.94 0.97,0.66 1.95,1.32 2.94,1.96 0.87,0.56 1.77,1.16 2.77,1.54l2.16 0.8zm-5.83 -57.24l5.83 -10.46 5.83 10.46 -5.83 10.46 -5.83 -10.46zm30.84 -13.81c1.33,3.67 1.44,16.64 -1.16,22.52l9.28 -2.14c-2.19,9.07 -7.16,16 -13.26,18.7 -6.68,3.57 -7.27,6.04 -8.72,12.53 -0.72,3.2 -0.17,3.1 -1.55,4.07 -0.11,-0.26 -0.23,-0.51 -0.35,-0.76l-2.26 -4.43 -2.55 4.33c-0.81,1.38 -1.37,3.56 -1.64,5.51 -1.34,0.89 -2.46,1.6 -2.79,1.72 -0.33,-0.12 -1.45,-0.83 -2.8,-1.72 -0.26,-1.95 -0.82,-4.13 -1.64,-5.51l-2.55 -4.33 -2.26 4.43c-0.13,0.25 -0.24,0.5 -0.35,0.76 -1.38,-0.97 -0.83,-0.87 -1.55,-4.07 -1.45,-6.49 -2.04,-8.95 -8.72,-12.53 -6.1,-2.7 -11.08,-9.63 -13.26,-18.7l9.29 2.14c-2.6,-5.88 -2.5,-18.85 -1.16,-22.52l0 0c12.13,4.76 18.39,17.72 23.81,27.68 0.4,0.7 0.79,1.38 1.18,2.04 5.72,-10.16 11.98,-24.6 25.02,-29.72zm-25 50.77l-0.02 -0.01 0 -8.89 0.02 -0.03 2.86 5.52c0.27,0.52 -0.02,1.21 -0.47,1.64 -0.93,0.89 -1.26,1.07 -2.4,1.77zm5.56 -12.44c2.97,-0.82 4.04,-3.27 5.6,-5.2 3.08,-3.81 7.08,0.75 4.2,3.76 -2.06,2.14 -5.83,2.94 -9.79,1.45zm-11.12 0c-2.97,-0.82 -4.04,-3.27 -5.6,-5.2 -3.08,-3.81 -7.08,0.75 -4.2,3.76 2.06,2.14 5.83,2.94 9.79,1.45z"/>
   <path class="fil1" d="M872.14 2539.09c14.67,0 33.98,6.47 40.95,20.63 0.1,0.2 0.14,0.38 0.14,0.61l0 19.85c0,0.22 -0.04,0.41 -0.15,0.61 -1.61,3.23 -3.23,6.47 -4.85,9.7 -0.66,1.32 -1.35,2.7 -1.08,4.23 0.41,2.27 2.41,3.92 4.71,3.94 0.75,0.01 1.36,0.62 1.36,1.37l0 9.93c0,21.86 -22.2,41.83 -40.48,50.87 -0.4,0.2 -0.82,0.2 -1.22,0 -18.27,-9.03 -40.47,-29 -40.47,-50.87l0 -9.92c0,-0.75 0.61,-1.37 1.36,-1.37 2.23,-0.02 4.19,-1.58 4.66,-3.76 0.35,-1.6 -0.34,-3.01 -1.03,-4.41 -1.62,-3.23 -3.23,-6.47 -4.84,-9.7 -0.1,-0.2 -0.15,-0.39 -0.15,-0.61l0 -19.85c0,-0.22 0.04,-0.41 0.14,-0.61 6.96,-14.16 26.26,-20.63 40.93,-20.63zm-34.58 22.53l0 17.34c1.43,2.87 2.87,5.74 4.31,8.62 1.42,2.85 2.28,5.46 1.57,8.7 -0.74,3.38 -2.95,6.11 -5.88,7.62l0 6.05c0,18.27 19.04,35.42 34.58,43.86 15.55,-8.44 34.59,-25.59 34.59,-43.86l0 -6.06c-3.05,-1.57 -5.33,-4.48 -5.96,-8.03 -0.56,-3.1 0.3,-5.57 1.66,-8.29 1.43,-2.86 2.83,-5.83 4.3,-8.67l0 -17.28c-6.5,-11.18 -22.57,-16.04 -34.59,-16.04 -12.01,0 -28.08,4.85 -34.58,16.04z"/>
   <path class="fil1" d="M842.69 2563.1l0 14.65c1.26,2.51 2.51,5.02 3.76,7.54 1.96,3.92 2.95,7.7 2,12.08 -0.15,0.66 -0.33,1.31 -0.55,1.94l24.25 0 0 -48.61c-9.8,0 -23.55,3.76 -29.46,12.39zm29.46 84.82c12.93,-7.68 29.46,-22.56 29.46,-37.96l0 -3.31c-2.18,-1.75 -3.88,-4.02 -4.93,-6.61l-24.53 0 0 47.88z"/>
   <path class="fil1" d="M509.19 2560.35l-3.46 -15.55 -15.55 3.46c-0.44,-1.98 -26.92,43.42 -37.38,61.5l-16.01 -10.18 -2.66 13.51 14.78 9.4c-0.03,0.52 0.01,1.05 0.12,1.56 0.2,0.89 0.49,1.68 0.86,2.36l-15.98 25.03 -5.69 1.27 2.31 10.37 10.37 -2.31 -1.27 -5.69 15.78 -25.04c1.38,0.1 2.8,-0.2 4.03,-0.86l14.83 9.43c0.39,-0.09 2.87,-2.04 5.4,-4l5.71 -4.14c-0.1,-0.19 -0.55,-0.46 -1.23,-0.78l-14.19 -9.02c10.94,-15.97 36.98,-54.53 39.23,-60.32z"/>
   <g>
    <path class="fil1" d="M1657.22 2610.37l-0 0.03c2.75,2.28 6.21,3.14 9.67,3.14l-18.88 28.79 -18.97 -28.95c3.3,0 6.59,-0.94 9.21,-2.98l0.01 -0.03 18.97 0zm14.14 4.48l8.7 -8.21 -7.94 -1.85 -0.77 10.06zm-15 26.72l34.35 -38.82 4.88 11.91 -39.23 26.92zm-10.01 12.67l-46.78 -20.28 3.3 13.8 43.45 15.81 43.9 -15.98 3.3 -13.79 -47.16 20.43zm-8.42 -14.25l-26.15 -31.29 -4.88 11.91 31.03 19.37z"/>
    <path class="fil1" d="M1677.67 2537.51c18.17,0 34.83,22.87 34.97,56.89l0 0c-3.81,-24.01 -14.44,-41.3 -26.96,-41.3 -15.17,0 -27.55,25.35 -28.42,57.31l-9.67 1.75 -9.34 -1.75c1.18,-40.65 18.37,-72.9 39.41,-72.9z"/>
   </g>
  </g>
 </g>
</svg>
