<?xml version="1.0" encoding="UTF-8"?>
<!DOCTYPE svg PUBLIC "-//W3C//DTD SVG 1.1//EN" "http://www.w3.org/Graphics/SVG/1.1/DTD/svg11.dtd">
<!-- Creator: CorelDRAW 2020 (64 Bit) -->
<svg xmlns="http://www.w3.org/2000/svg" xml:space="preserve" width="63mm" height="88mm" version="1.1" style="shape-rendering:geometricPrecision; text-rendering:geometricPrecision; image-rendering:optimizeQuality; fill-rule:evenodd; clip-rule:evenodd"
viewBox="0 0 7283.99 10174.46"
 xmlns:xlink="http://www.w3.org/1999/xlink"
 xmlns:xodm="http://www.corel.com/coreldraw/odm/2003">
 <defs>
  <style type="text/css">
   <![CDATA[
    .fil17 {fill:none}
    .fil1 {fill:#402D3C}
    .fil10 {fill:url(#id17)}
    .fil13 {fill:url(#id18)}
    .fil8 {fill:url(#id19)}
    .fil9 {fill:url(#id20)}
    .fil15 {fill:url(#id21)}
    .fil0 {fill:url(#id22)}
    .fil14 {fill:url(#id23)}
    .fil4 {fill:url(#id24)}
    .fil12 {fill:url(#id25)}
    .fil7 {fill:url(#id26)}
    .fil6 {fill:url(#id27)}
    .fil3 {fill:url(#id28)}
    .fil5 {fill:url(#id29)}
    .fil11 {fill:url(#id30)}
    .fil16 {fill:url(#id31)}
    .fil2 {fill:url(#id32)}
   ]]>
  </style>
   <clipPath id="id0">
    <path d="M7283.99 10174.46l-7283.99 0 0 -10174.46 7283.99 0 0 10174.46z"/>
   </clipPath>
      <mask id="id1">
  <radialGradient id="id2" gradientUnits="userSpaceOnUse" cx="6501.95" cy="-213.28" r="139.77" fx="6501.95" fy="-213.28">
   <stop offset="0" style="stop-opacity:1; stop-color:white"/>
   <stop offset="1" style="stop-opacity:0; stop-color:white"/>
  </radialGradient>
       <rect style="fill:url(#id2)" x="6811.31" y="25.02" width="304.18" height="207.73"/>
      </mask>
      <mask id="id3">
  <radialGradient id="id4" gradientUnits="userSpaceOnUse" cx="-140.87" cy="-213.26" r="139.77" fx="-140.87" fy="-213.26">
   <stop offset="0" style="stop-opacity:1; stop-color:white"/>
   <stop offset="1" style="stop-opacity:0; stop-color:white"/>
  </radialGradient>
       <rect style="fill:url(#id4)" x="168.49" y="25.04" width="304.17" height="207.66"/>
      </mask>
      <mask id="id5">
  <radialGradient id="id6" gradientUnits="userSpaceOnUse" cx="7441.77" cy="8213.78" r="204.8" fx="7441.77" fy="8213.78">
   <stop offset="0" style="stop-opacity:1; stop-color:white"/>
   <stop offset="1" style="stop-opacity:0; stop-color:white"/>
  </radialGradient>
       <rect style="fill:url(#id6)" x="6901.21" y="8997.14" width="419.37" height="303.08"/>
      </mask>
      <mask id="id7">
  <radialGradient id="id8" gradientUnits="userSpaceOnUse" cx="7080.16" cy="9680.98" r="143.13" fx="7080.16" fy="9680.98">
   <stop offset="0" style="stop-opacity:1; stop-color:white"/>
   <stop offset="1" style="stop-opacity:0; stop-color:white"/>
  </radialGradient>
       <rect style="fill:url(#id8)" x="6974.71" y="9303.77" width="235.38" height="405.89"/>
      </mask>
      <mask id="id9">
  <radialGradient id="id10" gradientUnits="userSpaceOnUse" cx="6868.61" cy="9273.5" r="146.91" fx="6868.61" fy="9273.5">
   <stop offset="0" style="stop-opacity:1; stop-color:white"/>
   <stop offset="1" style="stop-opacity:0; stop-color:white"/>
  </radialGradient>
       <rect style="fill:url(#id10)" x="6838.96" y="9121.09" width="257.38" height="318.9"/>
      </mask>
      <mask id="id11">
  <radialGradient id="id12" gradientUnits="userSpaceOnUse" cx="-25.03" cy="9008.71" r="0" fx="-25.03" fy="9008.71">
   <stop offset="0" style="stop-opacity:1; stop-color:white"/>
   <stop offset="1" style="stop-opacity:0; stop-color:white"/>
  </radialGradient>
       <rect style="fill:url(#id12)" x="-36.59" y="8997.14" width="419.37" height="303.08"/>
      </mask>
      <mask id="id13">
  <radialGradient id="id14" gradientUnits="userSpaceOnUse" cx="85.47" cy="9315.33" r="0" fx="85.47" fy="9315.33">
   <stop offset="0" style="stop-opacity:1; stop-color:white"/>
   <stop offset="1" style="stop-opacity:0; stop-color:white"/>
  </radialGradient>
       <rect style="fill:url(#id14)" x="73.9" y="9303.77" width="235.38" height="405.89"/>
      </mask>
      <mask id="id15">
  <radialGradient id="id16" gradientUnits="userSpaceOnUse" cx="199.21" cy="9132.65" r="0" fx="199.21" fy="9132.65">
   <stop offset="0" style="stop-opacity:1; stop-color:white"/>
   <stop offset="1" style="stop-opacity:0; stop-color:white"/>
  </radialGradient>
       <rect style="fill:url(#id16)" x="187.65" y="9121.09" width="257.38" height="318.9"/>
      </mask>
  <linearGradient id="id17" gradientUnits="userSpaceOnUse" x1="7069.55" y1="10229.16" x2="7069.55" y2="8411.82">
   <stop offset="0" style="stop-opacity:1; stop-color:#703364"/>
   <stop offset="1" style="stop-opacity:1; stop-color:#DEADCF"/>
  </linearGradient>
  <linearGradient id="id18" gradientUnits="userSpaceOnUse" xlink:href="#id17" x1="220.6" y1="9623.2" x2="220.6" y2="7971.14">
  </linearGradient>
  <linearGradient id="id19" gradientUnits="userSpaceOnUse" xlink:href="#id17" x1="7063.38" y1="9623.2" x2="7063.38" y2="7971.14">
  </linearGradient>
  <linearGradient id="id20" gradientUnits="userSpaceOnUse" xlink:href="#id17" x1="6721.23" y1="10229.16" x2="6721.23" y2="9008.71">
  </linearGradient>
  <linearGradient id="id21" gradientUnits="userSpaceOnUse" xlink:href="#id17" x1="214.44" y1="10229.16" x2="214.44" y2="8411.82">
  </linearGradient>
  <linearGradient id="id22" gradientUnits="userSpaceOnUse" x1="7014.77" y1="695.71" x2="7014.77" y2="-19.03">
   <stop offset="0" style="stop-opacity:1; stop-color:#402D3C"/>
   <stop offset="1" style="stop-opacity:1; stop-color:#201E1E"/>
  </linearGradient>
  <linearGradient id="id23" gradientUnits="userSpaceOnUse" xlink:href="#id17" x1="562.75" y1="10229.16" x2="562.75" y2="9008.71">
  </linearGradient>
  <linearGradient id="id24" gradientUnits="userSpaceOnUse" xlink:href="#id22" x1="269.24" y1="695.74" x2="269.24" y2="-19.07">
  </linearGradient>
  <linearGradient id="id25" gradientUnits="userSpaceOnUse" xlink:href="#id22" x1="537.48" y1="8104.86" x2="537.48" y2="10227.81">
  </linearGradient>
  <linearGradient id="id26" gradientUnits="userSpaceOnUse" xlink:href="#id22" x1="6746.51" y1="8104.86" x2="6746.51" y2="10227.81">
  </linearGradient>
  <linearGradient id="id27" gradientUnits="userSpaceOnUse" xlink:href="#id17" x1="-689.45" y1="-872.32" x2="571.16" y2="727.06">
  </linearGradient>
  <linearGradient id="id28" gradientUnits="userSpaceOnUse" xlink:href="#id17" x1="6204.85" y1="-872.33" x2="7465.36" y2="727.14">
  </linearGradient>
  <linearGradient id="id29" gradientUnits="userSpaceOnUse" xlink:href="#id17" x1="-246.44" y1="-298.03" x2="1184.28" y2="528">
  </linearGradient>
  <linearGradient id="id30" gradientUnits="userSpaceOnUse" xlink:href="#id17" x1="7063.4" y1="9623.2" x2="7063.4" y2="7971.13">
  </linearGradient>
  <linearGradient id="id31" gradientUnits="userSpaceOnUse" xlink:href="#id17" x1="220.59" y1="9623.2" x2="220.59" y2="7971.13">
  </linearGradient>
  <linearGradient id="id32" gradientUnits="userSpaceOnUse" xlink:href="#id17" x1="6449.98" y1="-298.04" x2="7880.75" y2="528.08">
  </linearGradient>
 </defs>
 <g id="Camada_x0020_1">
  <metadata id="CorelCorpID_0Corel-Layer"/>
  <g>
  </g>
  <g style="clip-path:url(#id0)">
   <g>
    <g id="_2725222827008">
     <polygon class="fil0" points="6730.45,-19.07 7299.03,-18.38 7299.03,695.74 7267.21,688.24 7178.88,543.71 7213.67,412.55 6986.15,286.75 6962.06,91.35 6825.55,155.58 "/>
     <path class="fil1" d="M6853.83 85.4c108.69,-75.09 252.4,-81.34 367.68,-14.78 28.66,16.56 54.76,37.07 77.52,61.01l0 393.82c-10.37,-81.31 29.45,-274.44 -132.15,-360.2 -96.97,-48.42 -255.45,-26.86 -320.02,85.1l-11.9 20.87 -167.6 -290.28 126.16 0 60.31 104.46z"/>
     <path class="fil2" d="M7299.03 353.7l0 -204.07c-23.32,-26.58 -51.31,-49.85 -83.59,-68.49 -118.59,-68.47 -262.33,-55.53 -365.4,21.96l-70.53 -122.16 -98.13 0 49.85 86.37 103.64 179.51 0.01 0 0.53 -0.96 0.91 -1.57c68.38,-117.42 240.48,-145.04 336.61,-89.54 96.15,55.51 121.24,119.04 126.08,198.96l0 0z"/>
     <path class="fil1" style="mask:url(#id1)" d="M7103.93 41.09c-89.5,-14.87 -181.68,7.72 -253.9,62.01l-27.15 -47.01 0 165.06 29.14 0c59,-75.64 165.36,-104.91 251.91,-90.31l0 -89.74z"/>
     <path class="fil1" d="M7040.91 243.72l247.01 142.59 -35.21 79.75c-17.67,40 -15.3,85.87 6.58,123.76 9.98,17.27 23.48,32.08 39.74,43.5l0 121.23 -4.08 -1.46c-55.13,-19.66 -101.02,-57.95 -130.28,-108.64 -37.33,-64.69 -43.03,-143.24 -16.11,-212.44l-219.86 -126.91 0.83 -7.85c9.25,-87.2 -14.53,-238.65 -62.9,-313.49l-1.84 -2.83 125.35 0c40.49,59.07 49.62,191.58 50.76,262.79z"/>
     <path class="fil3" d="M6941.6 298.54l0.02 -0.01 163.6 94.45 58.63 33.85 0.02 -0.01c-29.12,65.93 -27.48,144.37 11.31,211.57 28.87,50.01 73.41,85.29 123.84,103.27l0 -93.79c-20.13,-12.51 -37.56,-30.01 -50.25,-51.97 -23.9,-41.39 -26.44,-91.11 -7.18,-134.73l30.81 -69.8 -243.56 -140.58c-0.21,-22.58 -2.53,-208.53 -53.89,-269.85l-95.76 0c65.12,104.87 66.38,280.08 62.4,317.6z"/>
    </g>
    <g id="_2725222823888">
     <polygon class="fil4" points="553.54,-19.07 -15.04,-18.38 -15.04,695.74 16.78,688.24 105.11,543.71 70.32,412.54 297.83,286.73 321.93,91.35 458.44,155.58 "/>
     <path class="fil1" d="M430.16 85.4c-108.69,-75.09 -252.4,-81.34 -367.69,-14.78 -28.66,16.55 -54.75,37.07 -77.51,61.01l0 393.81c10.37,-81.3 -29.45,-274.43 132.14,-360.19 96.98,-48.42 255.46,-26.87 320.04,85.08l11.9 20.87 167.59 -290.27 -126.16 0 -60.31 104.46z"/>
     <path class="fil5" d="M-15.04 353.7l0 -204.07c23.32,-26.58 51.3,-49.87 83.58,-68.49 118.6,-68.47 262.34,-55.53 365.42,21.96l70.52 -122.16 98.13 0 -49.85 86.37 -103.64 179.51 -0.01 0 -0.53 -0.96 -0.91 -1.58c-68.38,-117.41 -240.48,-145.03 -336.62,-89.52 -96.15,55.5 -121.23,119.04 -126.07,198.96l0 0z"/>
     <path class="fil1" style="mask:url(#id3)" d="M180.05 41.09c89.5,-14.88 181.68,7.72 253.91,62.01l27.14 -47.02 0 165.07 -29.14 0c-59,-75.64 -165.36,-104.91 -251.91,-90.31l0 -89.74z"/>
     <path class="fil1" d="M243.08 243.72l-247.01 142.58 35.21 79.77c17.67,40 15.3,85.87 -6.58,123.76 -9.98,17.27 -23.48,32.08 -39.74,43.5l0 121.23 4.08 -1.46c55.13,-19.66 101.02,-57.95 130.27,-108.64 37.34,-64.69 43.04,-143.24 16.12,-212.44l219.86 -126.91 -0.83 -7.85c-9.25,-87.2 14.53,-238.65 62.9,-313.49l1.84 -2.83 -125.35 0c-40.49,59.07 -49.62,191.58 -50.76,262.79z"/>
     <path class="fil6" d="M342.38 298.54l-0.02 -0.01 -163.6 94.45 -58.63 33.85 -0.02 -0.01c29.12,65.93 27.48,144.37 -11.31,211.57 -28.87,49.99 -73.41,85.29 -123.84,103.27l0 -93.79c20.13,-12.51 37.56,-30.01 50.25,-51.97 23.89,-41.39 26.44,-91.12 7.18,-134.73l-30.81 -69.8 243.56 -140.58c0.21,-22.58 2.53,-208.53 53.89,-269.85l95.76 0c-65.12,104.87 -66.38,280.06 -62.4,317.6z"/>
    </g>
    <g id="_2725222821680">
     <path class="fil7" d="M7342.79 10111.14c-10.37,65.88 -67.72,116.67 -136.4,116.67l-1057.83 0 117.68 -146.04 168.64 -82.97 240.9 16.06 272.99 -444.35 17.39 -321.21 -103.03 -194.1 160.59 -120.45 46.04 -190.04 -64.77 -173.98 -171.32 -77.63 168.64 -278.38 187.36 2.67 153.11 -112.54 0 2006.29z"/>
     <path class="fil1" d="M7036.6 8280.71l-103.33 178.94c119.55,56.63 196.62,177.65 196.62,311.04 0,133.4 -77.07,254.42 -196.63,311.04l155.13 268.68 -20.26 -35.08 -29.12 64.91c-7.06,20.07 -33.67,3.56 -60.85,-2.24l0.99 1.73 -216.17 -374.42 23.96 0c129.33,0 233.7,-105.5 233.7,-234.61 0,-129.1 -104.37,-234.6 -233.7,-234.6l-24.08 0.24 223.54 -387.18 10.14 4.86c31.64,15.16 66.11,22.89 101.2,22.89 118.88,0 219.26,-89.14 233.01,-207.17l1.33 -11.38 10.73 0.62 0 224.46c-64.64,65.69 -152.42,102.72 -245.07,102.72 -20.5,0 -40.96,-1.83 -61.13,-5.45zm272.64 1227.36c9.08,-4.91 17.71,-10.8 25.69,-17.61l7.86 -6.69 0 129.47c-11.62,5.15 -23.55,9.39 -35.71,12.75l2.16 -0.6 -52.2 -41.24 52.2 -76.08z"/>
     <path class="fil8" d="M6785.1 8523.95l-1.1 0.01 0 -0.01 103.64 -179.5 103.63 -179.5c32.23,15.44 68.33,24.08 106.45,24.08 126.52,0 230.78,-95.22 245.07,-217.9l0 194.68c-60.68,66.47 -148,108.2 -245.07,108.2 -22.72,0 -45.26,-2.31 -67.32,-6.87l-114.36 198.07c118.64,50.54 201.71,168.54 201.71,305.48 0,136.94 -83.07,254.95 -201.72,305.49l160.21 277.47 0 22.78c0,89.37 72.4,161.79 161.79,161.79 39.97,0 76.54,-14.5 104.76,-38.5l0 100.18c-31.81,14.93 -67.3,23.3 -104.76,23.3 -136.29,0 -246.77,-110.47 -246.77,-246.77l0 -0.02 -103.62 -179.46 -103.64 -179.5 0 -0.01 1.1 0.01 1.83 0c135.86,-0.5 245.84,-110.77 245.84,-246.75 0,-135.98 -109.98,-246.24 -245.84,-246.74l-1.83 0z"/>
     <path class="fil1" d="M6657.64 9951.76l236.22 -409.13c-10.8,-38.12 -16.23,-77.56 -16.23,-117.19 0,-236.88 192.01,-428.88 428.89,-428.88 12.09,0 24.21,0.52 36.27,1.55l0 109.76 -1.29 -0.14c-11.62,-1.26 -23.3,-1.91 -34.97,-1.91 -176.57,0 -319.63,143.06 -319.63,319.62 0,30.85 4.41,61.57 13.19,91.15l11.86 40.03 -301.9 522.89 -72.4 -20.01c-33.22,-9.19 -67.54,-13.79 -102,-13.79 -133.35,0 -256.04,69.19 -325.39,182.11l-123.31 0 1.68 -3.68c79.7,-175.01 254.16,-287.69 447.02,-287.69 41.16,0 82.15,5.12 122,15.32z"/>
     <path class="fil9" d="M6535.64 9948.58c44.28,0 87.17,6.05 127.86,17.3l100.35 -173.78 143.11 -247.89c-11.17,-37.63 -17.19,-77.5 -17.19,-118.78 0,-230.17 186.57,-416.74 416.75,-416.74 12.22,0 24.31,0.55 36.27,1.58l0 85.37c-11.92,-1.28 -24.01,-1.98 -36.27,-1.98 -183.27,0 -331.77,148.49 -331.77,331.76 0,32.04 4.57,63.88 13.69,94.6l10.38 35.03 -294.6 510.24 -63.36 -17.53c-34.28,-9.48 -69.66,-14.22 -105.22,-14.22 -145.25,0 -272.1,78.61 -340.37,195.59l-95.61 0c75.38,-165.51 242.23,-280.57 435.98,-280.57z"/>
     <path class="fil1" style="mask:url(#id5)" d="M6912.77 9288.67c56.6,-162.99 211.49,-279.96 393.75,-279.96l2.5 0.01 0 84.98 -2.5 -0.01c-134.5,0 -250.26,79.97 -302.35,194.98l-91.4 0z"/>
     <path class="fil1" d="M7208.45 8836.88c-58.2,-46.61 -92.26,-116.9 -92.26,-192.03 0,-127.91 98.18,-234.68 225.61,-245.14l0.99 -0.08 0 109.88c-67.21,9.5 -117.34,67.26 -117.34,135.33 0,43.88 20.77,84.59 56.17,110.47l61.17 44.73 0 22.67 -194.05 336.02c40.76,74.46 61.93,157.75 61.93,242.76 0,146.75 -63.32,285.6 -173.64,381.72l132.3 229.16 -118.36 34.86c-83,24.45 -144.12,95.22 -156.68,180.56l-110.05 0c12.51,-129.04 99.72,-238.68 221.24,-280.69l-112.59 -194.99 9.47 -6.31c9.11,-6.07 18.85,-11.43 27.86,-17.7 107.26,-74.33 171.17,-195.81 171.17,-326.6 0,-84.17 -26.34,-165.42 -75.87,-233.46l-4.65 -6.38 187.57 -324.8z"/>
     <path class="fil10" d="M7035.35 9160.92l0.02 0 94.46 -163.6 94.46 -163.59 0.02 0c-58.19,-42.52 -95.99,-111.28 -95.99,-188.87 0,-122.63 94.37,-223.18 214.46,-233.03l0 85.43c-73.08,9.48 -129.48,71.93 -129.48,147.6 0,47.79 22.65,92.13 61.15,120.27l61.57 45.03 -201.25 348.49c41.75,73.85 63.74,157.22 63.74,242.88 0,147.49 -65.42,285.64 -177.06,379.04l129.64 224.54 -103.57 30.5c-89.32,26.31 -153.62,102.94 -165.69,193.55l-85.55 0c12.64,-131.07 104.55,-238.94 227.23,-275.06l-19.97 -34.59 -62.78 -108.74 -0.01 0 -31.66 -54.85c0,0 22.08,-13.69 28.04,-17.82 106.58,-73.87 176.4,-197.07 176.4,-336.58 0,-89.93 -29.03,-173.07 -78.19,-240.6z"/>
     <path class="fil1" style="mask:url(#id7)" d="M7190.99 9315.33c4.97,28.27 7.53,57.1 7.53,86.19 0,108.65 -35.49,212.22 -98.82,296.57l-113.43 0c78.39,-74.55 127.27,-179.86 127.27,-296.57 0,-29.58 -3.13,-58.41 -9.1,-86.19l86.55 0z"/>
     <path class="fil1" d="M7068.13 9315.33l20.26 35.08 0 26.03c0,82.68 66.97,149.65 149.65,149.65 25.12,0 49.88,-6.23 71.58,-18l-24.08 62.32 23.71 55c-23.08,6.59 -47.02,9.94 -71.21,9.94 -141.9,0 -257.11,-114.15 -258.88,-255.61l-0.99 -1.73c3.1,-21.63 35.7,-9.82 42.77,-29.88l47.21 -32.79z"/>
     <path class="fil11" d="M7054.11 9315.33l22.13 38.33 0 22.78c0,89.37 72.4,161.79 161.79,161.79 25.56,0 49.72,-5.93 71.21,-16.48l0 91.02c-22.55,6.79 -46.46,10.44 -71.21,10.44 -136.29,0 -246.77,-110.47 -246.77,-246.77l0 -0.02 -0.5 -0.84c3.26,-20.81 8.51,-40.98 15.59,-60.24l47.76 0z"/>
     <path class="fil1" style="mask:url(#id9)" d="M6948.64 9132.65l18.01 31.21c-19.7,25.55 -36.57,53.38 -50.18,83.04l-28.84 -49.95 -37.13 -64.3 98.13 0zm78.91 136.68l48.69 84.32 0 22.78c0,18.19 3.01,35.68 8.53,51.99l-88 0c-3.6,-16.76 -5.52,-34.14 -5.52,-51.99l0 -0.02 -0.5 -0.84c5.97,-38.06 18.65,-73.88 36.79,-106.23z"/>
    </g>
    <g id="_2725222821920">
     <path class="fil12" d="M-58.8 10111.14c10.37,65.88 67.72,116.67 136.4,116.67l1057.83 0 -117.68 -146.04 -168.64 -82.97 -240.9 16.06 -272.99 -444.35 -17.39 -321.21 103.03 -194.1 -160.59 -120.45 -46.04 -190.04 64.77 -173.98 171.32 -77.63 -168.64 -278.38 -187.36 2.67 -153.11 -112.54 0 2006.29z"/>
     <path class="fil1" d="M247.39 8280.71l103.33 178.94c-119.55,56.63 -196.62,177.65 -196.62,311.04 0,133.4 77.07,254.42 196.63,311.04l-155.13 268.68 20.26 -35.08 29.12 64.91c7.06,20.07 33.67,3.56 60.85,-2.24l-0.99 1.73 216.17 -374.42 -23.96 0c-129.33,0 -233.7,-105.5 -233.7,-234.61 0,-129.1 104.37,-234.6 233.7,-234.6l24.08 0.24 -223.54 -387.18 -10.14 4.86c-31.64,15.16 -66.11,22.89 -101.2,22.89 -118.88,0 -219.26,-89.14 -233.01,-207.17l-1.33 -11.38 -10.73 0.62 0 224.46c64.64,65.69 152.42,102.72 245.07,102.72 20.5,0 40.96,-1.83 61.13,-5.45zm-272.64 1227.36c-9.08,-4.91 -17.71,-10.8 -25.69,-17.61l-7.86 -6.69 0 129.47c11.62,5.15 23.55,9.39 35.71,12.75l-2.16 -0.6 52.2 -41.24 -52.2 -76.08z"/>
     <path class="fil13" d="M498.88 8523.95l1.1 0.01 0 -0.01 -103.64 -179.5 -103.63 -179.5c-32.23,15.44 -68.33,24.08 -106.45,24.08 -126.52,0 -230.78,-95.22 -245.07,-217.9l0 194.68c60.68,66.47 147.99,108.2 245.07,108.2 22.72,0 45.26,-2.31 67.31,-6.87l114.36 198.07c-118.62,50.54 -201.7,168.54 -201.7,305.48 0,136.94 83.07,254.95 201.72,305.49l-160.21 277.47 0 22.78c0,89.37 -72.4,161.79 -161.79,161.79 -39.97,0 -76.54,-14.5 -104.76,-38.5l0 100.18c31.81,14.93 67.3,23.3 104.76,23.3 136.29,0 246.77,-110.47 246.77,-246.77l0 -0.02 103.62 -179.46 103.64 -179.5 0 -0.01 -1.1 0.01 -1.83 0c-135.86,-0.5 -245.84,-110.77 -245.84,-246.75 0,-135.98 109.98,-246.24 245.84,-246.74l1.83 0z"/>
     <path class="fil1" d="M626.34 9951.76l-236.22 -409.13c10.8,-38.12 16.23,-77.56 16.23,-117.19 0,-236.88 -192.01,-428.88 -428.89,-428.88 -12.09,0 -24.21,0.52 -36.27,1.55l0 109.76 1.29 -0.14c11.62,-1.26 23.3,-1.91 34.97,-1.91 176.57,0 319.63,143.06 319.63,319.62 0,30.85 -4.41,61.57 -13.19,91.15l-11.87 40.03 301.92 522.89 72.4 -20.01c33.22,-9.19 67.54,-13.79 102,-13.79 133.35,0 256.04,69.19 325.39,182.11l123.31 0 -1.68 -3.68c-79.7,-175.01 -254.16,-287.69 -447.02,-287.69 -41.16,0 -82.15,5.12 -122,15.32z"/>
     <path class="fil14" d="M748.34 9948.58c-44.28,0 -87.17,6.05 -127.87,17.3l-100.33 -173.78 -143.11 -247.89c11.17,-37.63 17.19,-77.5 17.19,-118.78 0,-230.17 -186.57,-416.74 -416.75,-416.74 -12.22,0 -24.31,0.55 -36.27,1.58l0 85.37c11.92,-1.28 24.01,-1.98 36.27,-1.98 183.27,0 331.77,148.49 331.77,331.76 0,32.04 -4.57,63.88 -13.69,94.6l-10.38 35.03 294.6 510.24 63.36 -17.53c34.28,-9.48 69.66,-14.22 105.22,-14.22 145.25,0 272.1,78.61 340.37,195.59l95.61 0c-75.38,-165.51 -242.23,-280.57 -435.98,-280.57z"/>
     <path class="fil1" style="mask:url(#id11)" d="M371.22 9288.67c-56.6,-162.99 -211.49,-279.96 -393.75,-279.96l-2.5 0.01 0 84.98 2.5 -0.01c134.5,0 250.26,79.97 302.35,194.98l91.4 0z"/>
     <path class="fil1" d="M75.53 8836.88c58.2,-46.61 92.26,-116.9 92.26,-192.03 0,-127.91 -98.18,-234.68 -225.61,-245.14l-0.99 -0.08 0 109.88c67.21,9.5 117.34,67.26 117.34,135.33 0,43.88 -20.77,84.59 -56.17,110.47l-61.17 44.73 0 22.67 194.05 336.02c-40.76,74.46 -61.93,157.75 -61.93,242.76 0,146.75 63.32,285.6 173.64,381.72l-132.3 229.16 118.36 34.86c83,24.45 144.12,95.22 156.68,180.56l110.05 0c-12.51,-129.04 -99.72,-238.68 -221.24,-280.69l112.59 -194.99 -9.47 -6.31c-9.11,-6.07 -18.85,-11.43 -27.86,-17.7 -107.26,-74.33 -171.17,-195.81 -171.17,-326.6 0,-84.17 26.34,-165.42 75.87,-233.46l4.65 -6.38 -187.57 -324.8z"/>
     <path class="fil15" d="M248.64 9160.92l-0.02 0 -94.46 -163.6 -94.46 -163.59 -0.02 0c58.19,-42.52 95.99,-111.28 95.99,-188.87 0,-122.63 -94.37,-223.18 -214.46,-233.03l0 85.43c73.08,9.48 129.48,71.93 129.48,147.6 0,47.79 -22.65,92.13 -61.15,120.27l-61.57 45.03 201.25 348.49c-41.75,73.85 -63.74,157.22 -63.74,242.88 0,147.49 65.42,285.64 177.06,379.04l-129.64 224.54 103.57 30.5c89.32,26.31 153.62,102.94 165.69,193.55l85.55 0c-12.64,-131.07 -104.55,-238.94 -227.23,-275.06l19.97 -34.59 62.78 -108.74 0.01 0 31.66 -54.85c0,0 -22.08,-13.69 -28.04,-17.82 -106.58,-73.87 -176.4,-197.07 -176.4,-336.58 0,-89.93 29.03,-173.07 78.19,-240.6z"/>
     <path class="fil1" style="mask:url(#id13)" d="M92.99 9315.33c-4.97,28.27 -7.53,57.1 -7.53,86.19 0,108.65 35.49,212.22 98.82,296.57l113.43 0c-78.39,-74.55 -127.27,-179.86 -127.27,-296.57 0,-29.58 3.13,-58.41 9.1,-86.19l-86.55 0z"/>
     <path class="fil1" d="M215.86 9315.33l-20.26 35.08 0 26.03c0,82.68 -66.97,149.65 -149.65,149.65 -25.12,0 -49.88,-6.23 -71.58,-18l24.08 62.32 -23.71 55c23.08,6.59 47.02,9.94 71.21,9.94 141.9,0 257.11,-114.15 258.88,-255.61l0.99 -1.73c-3.1,-21.63 -35.7,-9.82 -42.77,-29.88l-47.21 -32.79z"/>
     <path class="fil16" d="M229.87 9315.33l-22.13 38.33 0 22.78c0,89.37 -72.4,161.79 -161.79,161.79 -25.56,0 -49.72,-5.93 -71.21,-16.48l0 91.02c22.55,6.79 46.44,10.44 71.21,10.44 136.29,0 246.77,-110.47 246.77,-246.77l0 -0.02 0.5 -0.84c-3.26,-20.81 -8.51,-40.98 -15.59,-60.24l-47.76 0z"/>
     <path class="fil1" style="mask:url(#id15)" d="M335.34 9132.65l-18.01 31.21c19.7,25.55 36.57,53.38 50.18,83.04l28.84 -49.95 37.13 -64.3 -98.13 0zm-78.91 136.68l-48.69 84.32 0 22.78c0,18.19 -3.01,35.68 -8.53,51.99l88 0c3.6,-16.76 5.52,-34.14 5.52,-51.99l0 -0.02 0.5 -0.84c-5.97,-38.06 -18.65,-73.88 -36.79,-106.23z"/>
    </g>
   </g>
  </g>
  <polygon class="fil17" points="7283.99,10174.46 -0,10174.46 -0,0 7283.99,0 "/>
 </g>
</svg>
