<?xml version="1.0" encoding="UTF-8"?>
<!DOCTYPE svg PUBLIC "-//W3C//DTD SVG 1.1//EN" "http://www.w3.org/Graphics/SVG/1.1/DTD/svg11.dtd">
<!-- Creator: CorelDRAW 2020 (64 Bit) -->
<svg xmlns="http://www.w3.org/2000/svg" xml:space="preserve" width="63mm" height="88mm" version="1.1" style="shape-rendering:geometricPrecision; text-rendering:geometricPrecision; image-rendering:optimizeQuality; fill-rule:evenodd; clip-rule:evenodd"
viewBox="0 0 5822.41 8132.9"
 xmlns:xlink="http://www.w3.org/1999/xlink"
 xmlns:xodm="http://www.corel.com/coreldraw/odm/2003">
 <defs>
  <style type="text/css">
   <![CDATA[
    .fil24 {fill:none}
    .fil1 {fill:#4C402E}
    .fil3 {fill:#41382A}
    .fil8 {fill:url(#id25)}
    .fil5 {fill:url(#id26)}
    .fil16 {fill:url(#id27)}
    .fil0 {fill:url(#id28)}
    .fil20 {fill:url(#id29)}
    .fil2 {fill:url(#id30)}
    .fil4 {fill:url(#id31)}
    .fil14 {fill:url(#id32)}
    .fil7 {fill:url(#id33)}
    .fil6 {fill:url(#id34)}
    .fil10 {fill:url(#id35)}
    .fil18 {fill:url(#id36)}
    .fil13 {fill:url(#id37)}
    .fil9 {fill:url(#id38)}
    .fil12 {fill:url(#id39)}
    .fil19 {fill:url(#id40)}
    .fil21 {fill:url(#id41)}
    .fil23 {fill:url(#id42)}
    .fil17 {fill:url(#id43)}
    .fil11 {fill:url(#id44)}
    .fil22 {fill:url(#id45)}
    .fil15 {fill:url(#id46)}
   ]]>
  </style>
   <clipPath id="id0">
    <path d="M5822.41 8132.9l-5822.41 0 0 -8132.9 5822.41 0 0 8132.9z"/>
   </clipPath>
      <mask id="id1">
  <radialGradient id="id2" gradientUnits="userSpaceOnUse" cx="-97.91" cy="-380.71" r="111.53" fx="-97.91" fy="-380.71">
   <stop offset="0" style="stop-opacity:1; stop-color:white"/>
   <stop offset="1" style="stop-opacity:0; stop-color:white"/>
  </radialGradient>
       <rect style="fill:url(#id2)" x="51.71" y="-18.04" width="170.56" height="325.88"/>
      </mask>
      <mask id="id3">
  <radialGradient id="id4" gradientUnits="userSpaceOnUse" cx="5450.53" cy="-380.71" r="111.53" fx="5450.53" fy="-380.71">
   <stop offset="0" style="stop-opacity:1; stop-color:white"/>
   <stop offset="1" style="stop-opacity:0; stop-color:white"/>
  </radialGradient>
       <rect style="fill:url(#id4)" x="5600.15" y="-18.04" width="170.56" height="325.88"/>
      </mask>
      <mask id="id5">
  <radialGradient id="id6" gradientUnits="userSpaceOnUse" cx="4894.1" cy="9209.79" r="144.05" fx="4894.1" fy="9209.79">
   <stop offset="0" style="stop-opacity:1; stop-color:white"/>
   <stop offset="1" style="stop-opacity:0; stop-color:white"/>
  </radialGradient>
       <rect style="fill:url(#id6)" x="5321.28" y="7852.11" width="176.71" height="318.62"/>
      </mask>
      <mask id="id7">
  <radialGradient id="id8" gradientUnits="userSpaceOnUse" cx="5220.48" cy="8372.21" r="133.82" fx="5220.48" fy="8372.21">
   <stop offset="0" style="stop-opacity:1; stop-color:white"/>
   <stop offset="1" style="stop-opacity:0; stop-color:white"/>
  </radialGradient>
       <rect style="fill:url(#id8)" x="5455.6" y="7419.3" width="258.8" height="350.1"/>
      </mask>
      <mask id="id9">
  <radialGradient id="id10" gradientUnits="userSpaceOnUse" cx="5399.35" cy="6581.73" r="142.33" fx="5399.35" fy="6581.73">
   <stop offset="0" style="stop-opacity:1; stop-color:white"/>
   <stop offset="1" style="stop-opacity:0; stop-color:white"/>
  </radialGradient>
       <rect style="fill:url(#id10)" x="5531.14" y="6538.64" width="314.8" height="228.94"/>
      </mask>
      <mask id="id11">
  <radialGradient id="id12" gradientUnits="userSpaceOnUse" cx="6415.84" cy="7515.71" r="138.58" fx="6415.84" fy="7515.71">
   <stop offset="0" style="stop-opacity:1; stop-color:white"/>
   <stop offset="1" style="stop-opacity:0; stop-color:white"/>
  </radialGradient>
       <rect style="fill:url(#id12)" x="5574.58" y="7806.39" width="271.35" height="156.49"/>
      </mask>
      <mask id="id13">
  <radialGradient id="id14" gradientUnits="userSpaceOnUse" cx="5602.41" cy="6559.29" r="135.29" fx="5602.41" fy="6559.29">
   <stop offset="0" style="stop-opacity:1; stop-color:white"/>
   <stop offset="1" style="stop-opacity:0; stop-color:white"/>
  </radialGradient>
       <rect style="fill:url(#id14)" x="5489.13" y="6685.8" width="232.8" height="298.11"/>
      </mask>
      <mask id="id15">
  <radialGradient id="id16" gradientUnits="userSpaceOnUse" cx="-101.49" cy="9209.79" r="144.05" fx="-101.49" fy="9209.79">
   <stop offset="0" style="stop-opacity:1; stop-color:white"/>
   <stop offset="1" style="stop-opacity:0; stop-color:white"/>
  </radialGradient>
       <rect style="fill:url(#id16)" x="325.69" y="7852.11" width="176.71" height="318.62"/>
      </mask>
      <mask id="id17">
  <radialGradient id="id18" gradientUnits="userSpaceOnUse" cx="-125.84" cy="8372.21" r="133.82" fx="-125.84" fy="8372.21">
   <stop offset="0" style="stop-opacity:1; stop-color:white"/>
   <stop offset="1" style="stop-opacity:0; stop-color:white"/>
  </radialGradient>
       <rect style="fill:url(#id18)" x="109.29" y="7419.3" width="258.8" height="350.1"/>
      </mask>
      <mask id="id19">
  <radialGradient id="id20" gradientUnits="userSpaceOnUse" cx="-154.04" cy="6581.73" r="142.33" fx="-154.04" fy="6581.73">
   <stop offset="0" style="stop-opacity:1; stop-color:white"/>
   <stop offset="1" style="stop-opacity:0; stop-color:white"/>
  </radialGradient>
       <rect style="fill:url(#id20)" x="-22.25" y="6538.64" width="314.8" height="228.94"/>
      </mask>
      <mask id="id21">
  <radialGradient id="id22" gradientUnits="userSpaceOnUse" cx="819.01" cy="7515.71" r="138.58" fx="819.01" fy="7515.71">
   <stop offset="0" style="stop-opacity:1; stop-color:white"/>
   <stop offset="1" style="stop-opacity:0; stop-color:white"/>
  </radialGradient>
       <rect style="fill:url(#id22)" x="-22.25" y="7806.39" width="271.35" height="156.49"/>
      </mask>
      <mask id="id23">
  <radialGradient id="id24" gradientUnits="userSpaceOnUse" cx="215.03" cy="6559.29" r="135.29" fx="215.03" fy="6559.29">
   <stop offset="0" style="stop-opacity:1; stop-color:white"/>
   <stop offset="1" style="stop-opacity:0; stop-color:white"/>
  </radialGradient>
       <rect style="fill:url(#id24)" x="101.75" y="6685.8" width="232.8" height="298.11"/>
      </mask>
  <linearGradient id="id25" gradientUnits="userSpaceOnUse" x1="5370.61" y1="6372.5" x2="5370.61" y2="8160.43">
   <stop offset="0" style="stop-opacity:1; stop-color:#41382A"/>
   <stop offset="1" style="stop-opacity:1; stop-color:#201E1E"/>
  </linearGradient>
  <linearGradient id="id26" gradientUnits="userSpaceOnUse" xlink:href="#id25" x1="5602.51" y1="547.82" x2="5602.51" y2="-8.8">
  </linearGradient>
  <linearGradient id="id27" gradientUnits="userSpaceOnUse" xlink:href="#id25" x1="453.08" y1="6372.5" x2="453.08" y2="8160.43">
  </linearGradient>
  <linearGradient id="id28" gradientUnits="userSpaceOnUse" xlink:href="#id25" x1="219.89" y1="547.82" x2="219.89" y2="-8.8">
  </linearGradient>
  <linearGradient id="id29" gradientUnits="userSpaceOnUse" x1="691.86" y1="8869.68" x2="691.86" y2="6431.67">
   <stop offset="0" style="stop-opacity:1; stop-color:#937537"/>
   <stop offset="1" style="stop-opacity:1; stop-color:#FAF174"/>
  </linearGradient>
  <linearGradient id="id30" gradientUnits="userSpaceOnUse" xlink:href="#id29" x1="307.54" y1="-815.1" x2="307.54" y2="655.15">
  </linearGradient>
  <linearGradient id="id31" gradientUnits="userSpaceOnUse" xlink:href="#id29" x1="599.7" y1="-294.72" x2="599.7" y2="337.04">
  </linearGradient>
  <linearGradient id="id32" gradientUnits="userSpaceOnUse" xlink:href="#id29" x1="5838.01" y1="8160.43" x2="5838.01" y2="6295.38">
  </linearGradient>
  <linearGradient id="id33" gradientUnits="userSpaceOnUse" xlink:href="#id29" x1="5943.77" y1="-294.72" x2="5943.77" y2="337.04">
  </linearGradient>
  <linearGradient id="id34" gradientUnits="userSpaceOnUse" xlink:href="#id29" x1="5918.16" y1="-815.1" x2="5918.16" y2="655.15">
  </linearGradient>
  <linearGradient id="id35" gradientUnits="objectBoundingBox" xlink:href="#id29" x1="100.614%" y1="100.543%" x2="100.614%" y2="0%">
  </linearGradient>
  <linearGradient id="id36" gradientUnits="objectBoundingBox" xlink:href="#id29" x1="0%" y1="100.543%" x2="0%" y2="0%">
  </linearGradient>
  <linearGradient id="id37" gradientUnits="userSpaceOnUse" xlink:href="#id29" x1="6217.98" y1="8313.27" x2="6217.98" y2="7790.73">
  </linearGradient>
  <linearGradient id="id38" gradientUnits="userSpaceOnUse" xlink:href="#id29" x1="5838.01" y1="8160.43" x2="5838.01" y2="6295.38">
  </linearGradient>
  <linearGradient id="id39" gradientUnits="userSpaceOnUse" xlink:href="#id29" x1="6035.39" y1="8869.68" x2="6035.39" y2="6431.67">
  </linearGradient>
  <linearGradient id="id40" gradientUnits="userSpaceOnUse" xlink:href="#id29" x1="389.09" y1="8160.43" x2="389.09" y2="6295.39">
  </linearGradient>
  <linearGradient id="id41" gradientUnits="userSpaceOnUse" xlink:href="#id29" x1="1339.6" y1="8313.27" x2="1339.6" y2="7790.73">
  </linearGradient>
  <linearGradient id="id42" gradientUnits="userSpaceOnUse" xlink:href="#id29" x1="477.23" y1="8160.43" x2="477.23" y2="6295.38">
  </linearGradient>
  <linearGradient id="id43" gradientUnits="userSpaceOnUse" xlink:href="#id29" x1="453.25" y1="8160.43" x2="453.25" y2="6295.38">
  </linearGradient>
  <linearGradient id="id44" gradientUnits="userSpaceOnUse" xlink:href="#id29" x1="5838.01" y1="8160.43" x2="5838.01" y2="6295.39">
  </linearGradient>
  <linearGradient id="id45" gradientUnits="userSpaceOnUse" xlink:href="#id29" x1="247.03" y1="8160.43" x2="247.03" y2="6295.38">
  </linearGradient>
  <linearGradient id="id46" gradientUnits="userSpaceOnUse" xlink:href="#id29" x1="5838" y1="8160.43" x2="5838" y2="6295.38">
  </linearGradient>
 </defs>
 <g id="Camada_x0020_1">
  <metadata id="CorelCorpID_0Corel-Layer"/>
  <g>
  </g>
  <g style="clip-path:url(#id0)">
   <g>
    <g id="_2725204036672">
     <polygon class="fil0" points="447.11,-8.8 -7.32,-8.8 -7.32,546.71 -6,547.82 155.53,478.02 42.18,412.96 157.62,127.5 327.64,45.65 373.82,119.11 "/>
     <polygon class="fil1" points="94.85,401.07 223.66,143.43 147.56,-8.8 51.77,-8.8 127.89,143.43 -6,411.21 -6,446.43 47.5,473.18 -6,499.93 -6,595.72 239.08,473.18 "/>
     <polygon class="fil2" points="-6,510.57 68.79,473.18 -6,435.79 -6,432.5 138.53,143.43 62.41,-8.8 136.91,-8.8 213.03,143.43 82.08,405.33 217.8,473.18 -6,585.07 "/>
     <polygon class="fil3" style="mask:url(#id1)" points="60.95,298.6 138.53,143.43 62.41,-8.8 136.91,-8.8 213.03,143.43 135.44,298.6 "/>
     <polygon class="fil1" points="374.34,40.91 349.49,-8.8 331.45,-8.8 82.9,115.47 -2.1,72.97 -6,74.92 -6,170.7 -2.1,168.75 82.9,211.25 307.57,98.93 374.34,232.49 495,-8.8 399.21,-8.8 "/>
     <polygon class="fil4" points="484.35,-8.8 374.34,211.21 311.82,86.15 82.9,200.61 -2.1,158.1 -6,160.06 -6,85.56 -2.1,83.61 82.9,126.12 341.63,-3.24 374.34,62.2 409.85,-8.8 "/>
    </g>
    <g id="_2725204027264">
     <polygon class="fil5" points="5375.31,-8.8 5829.73,-8.8 5829.73,546.71 5828.41,547.82 5666.88,478.02 5780.23,412.96 5664.79,127.5 5494.78,45.65 5448.6,119.11 "/>
     <polygon class="fil1" points="5727.56,401.07 5598.75,143.43 5674.86,-8.8 5770.64,-8.8 5694.52,143.43 5828.41,411.21 5828.41,446.43 5774.91,473.18 5828.41,499.93 5828.41,595.72 5583.33,473.18 "/>
     <polygon class="fil6" points="5828.41,510.57 5753.63,473.18 5828.41,435.79 5828.41,432.5 5683.89,143.43 5760,-8.8 5685.5,-8.8 5609.39,143.43 5740.34,405.33 5604.62,473.18 5828.41,585.07 "/>
     <polygon class="fil3" style="mask:url(#id3)" points="5761.46,298.6 5683.89,143.43 5760,-8.8 5685.5,-8.8 5609.39,143.43 5686.97,298.6 "/>
     <polygon class="fil1" points="5448.07,40.91 5472.92,-8.8 5490.96,-8.8 5739.51,115.47 5824.51,72.97 5828.41,74.92 5828.41,170.7 5824.51,168.75 5739.51,211.25 5514.84,98.93 5448.07,232.49 5327.42,-8.8 5423.2,-8.8 "/>
     <polygon class="fil7" points="5338.06,-8.8 5448.07,211.21 5510.59,86.15 5739.51,200.61 5824.51,158.1 5828.41,160.06 5828.41,85.56 5824.51,83.61 5739.51,126.12 5480.79,-3.24 5448.07,62.2 5412.56,-8.8 "/>
    </g>
    <g id="_2725204063792">
     <polygon class="fil8" points="5838.01,6372.8 5836.69,8160.05 4903.21,8160.43 4976.76,8025.62 5022.94,8111.67 5266.41,7986.79 5382.9,8020.37 5585.42,7589.07 5400.73,7222.84 5604.32,6831.44 5464.74,6762.17 5691.44,6657.25 5836.69,6372.5 "/>
     <polygon class="fil1" points="5456.89,7227.9 5836.69,7987.51 5836.69,8179.09 5361.1,7227.9 5836.69,6276.73 5836.69,6468.29 "/>
     <polygon class="fil9" points="5371.75,7227.9 5836.69,6298.01 5836.69,6447 5446.25,7227.9 5836.69,8008.8 5836.69,8157.79 "/>
     <polygon class="fil10" points="5668.84,7673.09 5836.69,8008.8 5836.69,8157.79 5622.08,7728.56 5622.08,7673.09 "/>
     <path class="fil11" d="M5557.01 6857.38l38.32 -76.62 59.59 29.8 -38.31 76.62 -59.6 -29.81zm56.34 -112.69l27.74 -55.48 74.5 0 -2.9 5.82 -99.34 49.66z"/>
     <polygon class="fil1" points="5568.27,6767.23 5795.25,6880.72 5647.27,7176.68 5744.5,7371.14 5415.66,8028.82 5481.99,8161.48 5386.21,8161.48 5319.88,8028.82 5648.72,7371.14 5551.49,7176.68 5680.3,6919.03 5376.7,6767.23 5836.69,6537.25 5836.69,6633.02 "/>
     <polygon class="fil12" points="5836.69,6622.38 5546.99,6767.23 5782.47,6884.97 5636.63,7176.68 5733.86,7371.14 5405.02,8028.82 5471.35,8161.48 5396.85,8161.48 5330.52,8028.82 5659.36,7371.14 5562.13,7176.68 5693.08,6914.77 5397.99,6767.23 5836.69,6547.88 "/>
     <polygon class="fil3" style="mask:url(#id5)" points="5488.75,7861.35 5405.02,8028.82 5471.35,8161.48 5396.85,8161.48 5330.52,8028.82 5414.25,7861.35 "/>
     <polygon class="fil3" style="mask:url(#id7)" points="5705.16,7428.54 5539.34,7760.16 5464.84,7760.16 5630.66,7428.54 "/>
     <polygon class="fil3" style="mask:url(#id9)" points="5836.69,6622.38 5564.79,6758.33 5540.38,6696.04 5836.69,6547.88 "/>
     <polygon class="fil1" points="5042.16,8053.76 5266.83,7941.43 5351.82,7983.93 5709.69,7804.99 5836.69,7868.5 5836.69,7964.29 5709.69,7900.77 5351.82,8079.71 5266.83,8037.21 5018.27,8161.48 5000.23,8161.48 4975.38,8111.76 4950.52,8161.48 4854.74,8161.48 4975.38,7920.19 "/>
     <polygon class="fil13" points="4865.38,8161.48 4975.38,7941.48 5037.9,8066.53 5266.83,7952.07 5351.82,7994.57 5709.69,7815.63 5836.69,7879.14 5836.69,7953.64 5709.69,7890.13 5351.82,8069.07 5266.83,8026.57 5008.1,8155.93 4975.38,8090.48 4939.87,8161.48 "/>
     <polygon class="fil3" style="mask:url(#id11)" points="5583.82,7878.56 5709.69,7815.63 5836.69,7879.14 5836.69,7953.64 5709.69,7890.13 5583.82,7953.06 "/>
     <polygon class="fil1" points="5586.81,6776.5 5719.57,6510.97 5817.16,6507.37 5663.43,6814.81 "/>
     <polygon class="fil14" points="5595.32,6780.77 5766.39,6438.64 5819.36,6481.68 5654.91,6810.56 "/>
     <path class="fil3" style="mask:url(#id13)" d="M5498.37 6974.66l58.64 -117.28 59.6 29.81 -43.74 87.47 -74.5 0zm96.96 -193.9l41.96 -83.94 75.4 -1.79 -57.77 115.52 -59.59 -29.8z"/>
     <polygon class="fil1" points="5557.21,7428.54 5723.03,7760.16 5664.05,7740.23 5627.23,7760.16 5461.43,7428.54 5517.16,7453.72 "/>
     <polygon class="fil15" points="5546.57,7428.54 5712.39,7760.16 5678.75,7760.16 5637.88,7760.16 5472.07,7428.54 5507.68,7428.54 "/>
     <polygon class="fil1" points="5690.71,7695.53 5836.69,7987.51 5836.69,8179.09 5627.58,7760.83 5627.58,7695.53 "/>
     <polygon class="fil10" points="5668.84,7673.09 5836.69,8008.8 5836.69,8157.79 5622.08,7728.56 5622.08,7673.09 "/>
    </g>
    <g id="_2725204062256">
     <polygon class="fil16" points="-14.32,6372.8 -13,8160.05 920.48,8160.43 846.93,8025.62 800.75,8111.67 557.28,7986.79 440.79,8020.37 238.27,7589.07 422.96,7222.84 219.37,6831.44 358.95,6762.17 132.25,6657.25 -13,6372.5 "/>
     <polygon class="fil1" points="366.8,7227.9 -13,7987.51 -13,8179.09 462.59,7227.9 -13,6276.73 -13,6468.29 "/>
     <polygon class="fil17" points="451.94,7227.9 -13,6298.01 -13,6447 377.44,7227.9 -13,8008.8 -13,8157.79 "/>
     <polygon class="fil18" points="154.85,7673.09 -13,8008.8 -13,8157.79 201.61,7728.56 201.61,7673.09 "/>
     <path class="fil19" d="M266.68 6857.38l-38.32 -76.62 -59.59 29.8 38.31 76.62 59.6 -29.81zm-56.34 -112.69l-27.74 -55.48 -74.5 0 2.9 5.82 99.34 49.66z"/>
     <polygon class="fil1" points="255.42,6767.23 28.44,6880.72 176.42,7176.68 79.18,7371.14 408.03,8028.82 341.7,8161.48 437.48,8161.48 503.81,8028.82 174.97,7371.14 272.2,7176.68 143.39,6919.03 446.99,6767.23 -13,6537.25 -13,6633.02 "/>
     <polygon class="fil20" points="-13,6622.38 276.7,6767.23 41.22,6884.97 187.06,7176.68 89.83,7371.14 418.67,8028.82 352.34,8161.48 426.84,8161.48 493.17,8028.82 164.33,7371.14 261.56,7176.68 130.61,6914.77 425.7,6767.23 -13,6547.88 "/>
     <polygon class="fil3" style="mask:url(#id15)" points="334.94,7861.35 418.67,8028.82 352.34,8161.48 426.84,8161.48 493.17,8028.82 409.44,7861.35 "/>
     <polygon class="fil3" style="mask:url(#id17)" points="118.53,7428.54 284.35,7760.16 358.85,7760.16 193.03,7428.54 "/>
     <polygon class="fil3" style="mask:url(#id19)" points="-13,6622.38 258.9,6758.33 283.31,6696.04 -13,6547.88 "/>
     <polygon class="fil1" points="781.53,8053.76 556.86,7941.43 471.87,7983.93 114,7804.99 -13,7868.5 -13,7964.29 114,7900.77 471.87,8079.71 556.86,8037.21 805.42,8161.48 823.46,8161.48 848.31,8111.76 873.17,8161.48 968.94,8161.48 848.31,7920.19 "/>
     <polygon class="fil21" points="958.31,8161.48 848.31,7941.48 785.79,8066.53 556.86,7952.07 471.87,7994.57 114,7815.63 -13,7879.14 -13,7953.64 114,7890.13 471.87,8069.07 556.86,8026.57 815.59,8155.93 848.31,8090.48 883.81,8161.48 "/>
     <polygon class="fil3" style="mask:url(#id21)" points="239.86,7878.56 114,7815.63 -13,7879.14 -13,7953.64 114,7890.13 239.86,7953.06 "/>
     <polygon class="fil1" points="236.88,6776.5 104.12,6510.97 6.53,6507.37 160.26,6814.81 "/>
     <polygon class="fil22" points="228.37,6780.77 57.3,6438.64 4.33,6481.68 168.78,6810.56 "/>
     <path class="fil3" style="mask:url(#id23)" d="M325.32 6974.66l-58.64 -117.28 -59.6 29.81 43.74 87.47 74.5 0zm-96.96 -193.9l-41.96 -83.94 -75.4 -1.79 57.77 115.52 59.59 -29.8z"/>
     <polygon class="fil1" points="266.47,7428.54 100.66,7760.16 159.64,7740.23 196.46,7760.16 362.26,7428.54 306.53,7453.72 "/>
     <polygon class="fil23" points="277.12,7428.54 111.3,7760.16 144.94,7760.16 185.81,7760.16 351.62,7428.54 316.01,7428.54 "/>
     <polygon class="fil1" points="132.98,7695.53 -13,7987.51 -13,8179.09 196.11,7760.83 196.11,7695.53 "/>
     <polygon class="fil18" points="154.85,7673.09 -13,8008.8 -13,8157.79 201.61,7728.56 201.61,7673.09 "/>
    </g>
   </g>
  </g>
  <polygon class="fil24" points="5822.41,8132.9 -0,8132.9 -0,0 5822.41,0 "/>
 </g>
</svg>
