<?xml version="1.0" encoding="UTF-8"?>
<!DOCTYPE svg PUBLIC "-//W3C//DTD SVG 1.1//EN" "http://www.w3.org/Graphics/SVG/1.1/DTD/svg11.dtd">
<!-- Creator: CorelDRAW 2020 (64 Bit) -->
<svg xmlns="http://www.w3.org/2000/svg" xml:space="preserve" width="63mm" height="88mm" version="1.1" style="shape-rendering:geometricPrecision; text-rendering:geometricPrecision; image-rendering:optimizeQuality; fill-rule:evenodd; clip-rule:evenodd"
viewBox="0 0 1955.17 2731.03"
 xmlns:xlink="http://www.w3.org/1999/xlink"
 xmlns:xodm="http://www.corel.com/coreldraw/odm/2003">
 <defs>
  <style type="text/css">
   <![CDATA[
    .fil22 {fill:none}
    .fil1 {fill:#264032}
    .fil3 {fill:#003333}
    .fil9 {fill:url(#id21)}
    .fil0 {fill:url(#id22)}
    .fil11 {fill:url(#id23)}
    .fil6 {fill:url(#id24)}
    .fil13 {fill:url(#id25)}
    .fil16 {fill:url(#id26)}
    .fil19 {fill:url(#id27)}
    .fil17 {fill:url(#id28)}
    .fil12 {fill:url(#id29)}
    .fil5 {fill:url(#id30)}
    .fil21 {fill:url(#id31)}
    .fil18 {fill:url(#id32)}
    .fil15 {fill:url(#id33)}
    .fil10 {fill:url(#id34)}
    .fil20 {fill:url(#id35)}
    .fil2 {fill:url(#id36)}
    .fil4 {fill:url(#id37)}
    .fil7 {fill:url(#id38)}
    .fil14 {fill:url(#id39)}
    .fil8 {fill:url(#id40)}
   ]]>
  </style>
   <clipPath id="id0">
    <path d="M1955.17 2731.03l-1955.17 0 0 -2731.03 1955.17 0 0 2731.03z"/>
   </clipPath>
      <mask id="id1">
  <radialGradient id="id2" gradientUnits="userSpaceOnUse" cx="1669.1" cy="2582.29" r="60.09" fx="1669.1" fy="2582.29">
   <stop offset="0" style="stop-opacity:1; stop-color:white"/>
   <stop offset="1" style="stop-opacity:0; stop-color:white"/>
  </radialGradient>
       <rect style="fill:url(#id2)" x="1820.76" y="2313.79" width="57.58" height="102.87"/>
      </mask>
      <mask id="id3">
  <radialGradient id="id4" gradientUnits="userSpaceOnUse" cx="1933.54" cy="2282.33" r="62.27" fx="1933.54" fy="2282.33">
   <stop offset="0" style="stop-opacity:1; stop-color:white"/>
   <stop offset="1" style="stop-opacity:0; stop-color:white"/>
  </radialGradient>
       <rect style="fill:url(#id4)" x="1841.56" y="2209.52" width="98.12" height="96.35"/>
      </mask>
      <mask id="id5">
  <radialGradient id="id6" gradientUnits="userSpaceOnUse" cx="2000.97" cy="2587.12" r="40.48" fx="2000.97" fy="2587.12">
   <stop offset="0" style="stop-opacity:1; stop-color:white"/>
   <stop offset="1" style="stop-opacity:0; stop-color:white"/>
  </radialGradient>
       <rect style="fill:url(#id6)" x="1808.81" y="2628.94" width="97.28" height="94.24"/>
      </mask>
      <mask id="id7">
  <radialGradient id="id8" gradientUnits="userSpaceOnUse" cx="1906.96" cy="3077.08" r="62.6" fx="1906.96" fy="3077.08">
   <stop offset="0" style="stop-opacity:1; stop-color:white"/>
   <stop offset="1" style="stop-opacity:0; stop-color:white"/>
  </radialGradient>
       <rect style="fill:url(#id8)" x="1848.42" y="2540.92" width="48.4" height="107.86"/>
      </mask>
      <mask id="id9">
  <radialGradient id="id10" gradientUnits="userSpaceOnUse" cx="-74.81" cy="2582.29" r="60.09" fx="-74.81" fy="2582.29">
   <stop offset="0" style="stop-opacity:1; stop-color:white"/>
   <stop offset="1" style="stop-opacity:0; stop-color:white"/>
  </radialGradient>
       <rect style="fill:url(#id10)" x="76.84" y="2313.79" width="57.58" height="102.87"/>
      </mask>
      <mask id="id11">
  <radialGradient id="id12" gradientUnits="userSpaceOnUse" cx="107.47" cy="2282.33" r="62.27" fx="107.47" fy="2282.33">
   <stop offset="0" style="stop-opacity:1; stop-color:white"/>
   <stop offset="1" style="stop-opacity:0; stop-color:white"/>
  </radialGradient>
       <rect style="fill:url(#id12)" x="15.5" y="2209.52" width="98.12" height="96.35"/>
      </mask>
      <mask id="id13">
  <radialGradient id="id14" gradientUnits="userSpaceOnUse" cx="241.23" cy="2587.12" r="40.48" fx="241.23" fy="2587.12">
   <stop offset="0" style="stop-opacity:1; stop-color:white"/>
   <stop offset="1" style="stop-opacity:0; stop-color:white"/>
  </radialGradient>
       <rect style="fill:url(#id14)" x="49.07" y="2628.94" width="97.28" height="94.24"/>
      </mask>
      <mask id="id15">
  <radialGradient id="id16" gradientUnits="userSpaceOnUse" cx="116.89" cy="3077.08" r="62.6" fx="116.89" fy="3077.08">
   <stop offset="0" style="stop-opacity:1; stop-color:white"/>
   <stop offset="1" style="stop-opacity:0; stop-color:white"/>
  </radialGradient>
       <rect style="fill:url(#id16)" x="58.35" y="2540.92" width="48.4" height="107.86"/>
      </mask>
      <mask id="id17">
  <radialGradient id="id18" gradientUnits="userSpaceOnUse" cx="1873.15" cy="57.08" r="37.77" fx="1873.15" fy="57.08">
   <stop offset="0" style="stop-opacity:1; stop-color:white"/>
   <stop offset="1" style="stop-opacity:0; stop-color:white"/>
  </radialGradient>
       <rect style="fill:url(#id18)" x="1891.34" y="57.88" width="69.16" height="50.48"/>
      </mask>
      <mask id="id19">
  <radialGradient id="id20" gradientUnits="userSpaceOnUse" cx="-23.52" cy="57.08" r="37.77" fx="-23.52" fy="57.08">
   <stop offset="0" style="stop-opacity:1; stop-color:white"/>
   <stop offset="1" style="stop-opacity:0; stop-color:white"/>
  </radialGradient>
       <rect style="fill:url(#id20)" x="-5.33" y="57.88" width="69.16" height="50.48"/>
      </mask>
  <linearGradient id="id21" gradientUnits="userSpaceOnUse" x1="150.86" y1="2170.88" x2="150.86" y2="2739.8">
   <stop offset="0" style="stop-opacity:1; stop-color:#264032"/>
   <stop offset="1" style="stop-opacity:1; stop-color:#201E1E"/>
  </linearGradient>
  <linearGradient id="id22" gradientUnits="userSpaceOnUse" xlink:href="#id21" x1="1804.31" y1="2170.88" x2="1804.31" y2="2739.8">
  </linearGradient>
  <linearGradient id="id23" gradientUnits="userSpaceOnUse" x1="68.77" y1="2740.7" x2="68.77" y2="2206.22">
   <stop offset="0" style="stop-opacity:1; stop-color:#0B6E45"/>
   <stop offset="0.470588" style="stop-opacity:1; stop-color:#00A95A"/>
   <stop offset="1" style="stop-opacity:1; stop-color:#57BB6B"/>
  </linearGradient>
  <linearGradient id="id24" gradientUnits="userSpaceOnUse" x1="1797.65" y1="2740" x2="1797.65" y2="2604.35">
   <stop offset="0" style="stop-opacity:1; stop-color:#264032"/>
   <stop offset="0.470588" style="stop-opacity:1; stop-color:#00A95A"/>
   <stop offset="1" style="stop-opacity:1; stop-color:#12A958"/>
  </linearGradient>
  <linearGradient id="id25" gradientUnits="userSpaceOnUse" xlink:href="#id24" x1="157.53" y1="2740" x2="157.53" y2="2604.35">
  </linearGradient>
  <linearGradient id="id26" gradientUnits="userSpaceOnUse" xlink:href="#id21" x1="1888.58" y1="192.29" x2="1888.58" y2="-3.04">
  </linearGradient>
  <linearGradient id="id27" gradientUnits="userSpaceOnUse" xlink:href="#id21" x1="66.59" y1="192.29" x2="66.59" y2="-3.04">
  </linearGradient>
  <linearGradient id="id28" gradientUnits="userSpaceOnUse" xlink:href="#id23" x1="1923.73" y1="202.33" x2="1923.73" y2="60.75">
  </linearGradient>
  <linearGradient id="id29" gradientUnits="userSpaceOnUse" xlink:href="#id23" x1="53.08" y1="2740.7" x2="53.08" y2="2140.11">
  </linearGradient>
  <linearGradient id="id30" gradientUnits="userSpaceOnUse" xlink:href="#id23" x1="1887.72" y1="2740.7" x2="1887.72" y2="2140.11">
  </linearGradient>
  <linearGradient id="id31" gradientUnits="userSpaceOnUse" xlink:href="#id23" x1="109.01" y1="111.11" x2="109.01" y2="-3.22">
  </linearGradient>
  <linearGradient id="id32" gradientUnits="userSpaceOnUse" xlink:href="#id23" x1="1918.81" y1="111.11" x2="1918.81" y2="-3.22">
  </linearGradient>
  <linearGradient id="id33" gradientUnits="userSpaceOnUse" xlink:href="#id23" x1="105.94" y1="2697.52" x2="105.94" y2="2207.59">
  </linearGradient>
  <linearGradient id="id34" gradientUnits="userSpaceOnUse" xlink:href="#id23" x1="67.74" y1="2740.7" x2="67.74" y2="2140.11">
  </linearGradient>
  <linearGradient id="id35" gradientUnits="userSpaceOnUse" xlink:href="#id23" x1="31.58" y1="202.33" x2="31.58" y2="60.75">
  </linearGradient>
  <linearGradient id="id36" gradientUnits="userSpaceOnUse" xlink:href="#id23" x1="1887.72" y1="2740.7" x2="1887.72" y2="2140.11">
  </linearGradient>
  <linearGradient id="id37" gradientUnits="userSpaceOnUse" xlink:href="#id23" x1="1887.31" y1="2740.7" x2="1887.31" y2="2206.22">
  </linearGradient>
  <linearGradient id="id38" gradientUnits="userSpaceOnUse" xlink:href="#id23" x1="1887.31" y1="2740.7" x2="1887.31" y2="2206.23">
  </linearGradient>
  <linearGradient id="id39" gradientUnits="userSpaceOnUse" xlink:href="#id23" x1="107.15" y1="2740.7" x2="107.15" y2="2206.23">
  </linearGradient>
  <linearGradient id="id40" gradientUnits="userSpaceOnUse" xlink:href="#id23" x1="1876.67" y1="2697.52" x2="1876.67" y2="2207.59">
  </linearGradient>
 </defs>
 <g id="Camada_x0020_1">
  <metadata id="CorelCorpID_0Corel-Layer"/>
  <g>
  </g>
  <g style="clip-path:url(#id0)">
   <g>
    <g id="_2761593634720">
     <polygon class="fil0" points="1830.34,2218.11 1825.42,2290.7 1849.54,2365.23 1824.72,2485.22 1830.35,2577.55 1865.59,2596.58 1859.1,2667.8 1837.96,2703.74 1745.13,2678.88 1649.32,2708.9 1674.65,2739.8 1860.92,2739.8 1959.31,2739.8 1959.31,2170.88 1891.22,2251.99 "/>
     <path class="fil1" d="M1843.93 2571.43c60.19,27.68 103.06,82.76 115.38,147.16l0 21.21 -24.68 0c-6.65,-68.39 -52.71,-126.93 -117.6,-149.62 -0.94,-0.33 -1.53,-1.17 -1.53,-2.17l0 -24.1c0,-0.05 0,-0.11 0.01,-0.16 -1.7,-17.61 -2.56,-35.3 -2.56,-52.99 0,-138.45 51.65,-270.52 145.59,-372.21 0.23,-0.25 0.49,-0.43 0.78,-0.56l0 41.45c-77.13,93.54 -118.88,209.96 -118.88,331.32 0,20.27 1.17,40.53 3.5,60.66z"/>
     <path class="fil2" d="M1959.31 2175.86c-75.64,90.77 -121.17,207.52 -121.17,334.91 0,21.05 1.25,41.81 3.67,62.21 65.09,29.44 111.8,92.37 118.12,166.82l-23 0c-6.77,-70.57 -54.5,-129.18 -119.14,-151.79l0 -24.1 0.03 0.01c-1.7,-17.49 -2.58,-35.21 -2.58,-53.15 0,-142.58 54.64,-272.37 144.08,-369.66l0 34.76z"/>
     <path class="fil3" style="mask:url(#id1)" d="M1875.23 2316.89c-12.33,30.88 -21.79,63.21 -28.07,96.66l-23.29 0c6,-33.37 15.02,-65.69 26.79,-96.66l24.58 0z"/>
     <path class="fil1" d="M1825.95 2204.12c54.41,15.13 101.68,49.3 133.36,95.86l0 57.18c-0.54,-0.23 -0.99,-0.67 -1.22,-1.26 -20.98,-52.64 -62.55,-94.86 -114.75,-116.71 -0.44,5.54 -1.72,15.1 -1.96,17.44 -0.63,6.07 -1.79,13.84 -1.79,19.86 0,72.82 37.3,140.03 98.73,178.75 0.55,0.34 0.91,0.86 1.03,1.46 0.15,0.65 0.02,1.31 -0.4,1.87 -35.14,47.24 -62.24,129.38 -62.24,188.26 0,22.98 0.65,45.55 6.46,67.91 2.19,8.43 4.9,16.75 7.47,25.07l-28.66 0c-8.5,-30.26 -12.75,-61.54 -12.75,-92.98 0,-65.15 18.24,-128.46 53.1,-183.47 -57.03,-45.36 -90.22,-113.79 -90.22,-186.87 0,-24.06 3.58,-47.96 10.72,-70.94 0.27,-0.86 0.97,-1.46 1.86,-1.59 0.45,-0.07 0.88,-0.01 1.26,0.16z"/>
     <path class="fil4" d="M1825.03 2206.24c55.74,15.42 103.21,50.75 134.28,97.86l0 48.72c-21.9,-53.2 -64.68,-95.59 -118.12,-116.99l-0.01 -0.01c0.12,0.62 -3.87,35.96 -3.87,40.66 0,76.11 39.85,142.9 99.81,180.69l-0.07 0.02 0.07 0.01c-35.3,47.46 -62.69,130.29 -62.69,189.63 0,51.34 4.84,63.95 13.81,92.98l-23.88 0c-8.36,-29.55 -12.84,-60.74 -12.84,-92.98 0,-67.76 19.77,-130.9 53.85,-183.98l0.01 -0.01c-55.38,-43.25 -90.98,-110.64 -90.98,-186.35 0,-24.47 3.71,-48.06 10.62,-70.26l0.02 0.02 -0 -0z"/>
     <path class="fil3" style="mask:url(#id3)" d="M1844.66 2212.62c35.46,13.26 66.88,34.8 91.91,62.26l0 27.88 -6.41 0c-22.29,-28.53 -51.67,-51.25 -85.5,-65.5l0 -24.64z"/>
     <path class="fil1" d="M1857.55 2293.75c16.13,-37.43 36.47,-73.1 60.78,-106.34l13.94 27.84c-20.47,29.66 -37.68,61.18 -51.48,94.08l-23.25 -15.58z"/>
     <path class="fil5" d="M1932.27 2211.24c-21.3,30.48 -39.45,63.34 -53.96,98.09l-20.77 0 0 -9.7c16.81,-40.05 38.23,-77.68 63.63,-112.21l11.09 0 0 23.83z"/>
     <path class="fil1" d="M1834.75 2684.3c7.18,-18.98 23.51,-37.13 39,-49.32 24.59,-19.36 54.19,-30.6 85.35,-33.18l0.21 -0.01 0 29.42c-49.52,0.29 -97.55,42.23 -109.5,89.49 -0.21,0.83 -0.76,1.44 -1.55,1.75 -0.79,0.31 -1.61,0.23 -2.33,-0.24 -26.16,-17.08 -66.35,-27.02 -97.44,-27.02 -27.91,0 -51.86,5.77 -76.28,18.43 5.92,9.27 13.44,17.46 22.19,24.15 0.66,0.5 1.02,1.25 1.01,2.03l-42.23 0c-8.5,-10.87 -15.15,-23.1 -19.63,-36.16 -0.37,-1.09 0,-2.25 0.94,-2.92 33.42,-23.67 73.03,-36.21 113.98,-36.21 29.95,0 59.35,6.71 86.26,19.8z"/>
     <path class="fil1" d="M1834.75 2684.3c7.18,-18.98 23.51,-37.13 39,-49.32 1.27,-1 2.56,-1.98 3.86,-2.94l25.38 0 0 17.08c-25.76,16.67 -46,43.17 -53.18,71.59 -0.21,0.83 -0.76,1.44 -1.55,1.75 -0.79,0.31 -1.61,0.23 -2.33,-0.24 -9.78,-6.38 -21.52,-11.77 -34.01,-16.01l0 -31.28c7.77,2.63 15.4,5.76 22.83,9.38z"/>
     <path class="fil6" d="M1668.6 2712.63c6.3,10.52 14.55,19.74 24.26,27.16l-36.4 0c-8.84,-10.93 -15.82,-23.42 -20.47,-36.99 31.78,-22.51 70.6,-35.74 112.51,-35.74 31.55,0 61.34,7.5 87.71,20.81 9.89,-30.1 53.44,-77.75 123.11,-83.52l0 24.3c-41.6,0.24 -97.49,34.11 -111.98,91.42 -26.58,-17.35 -67.34,-27.44 -98.84,-27.44 -31.5,0 -56.09,7.24 -79.89,20z"/>
     <path class="fil3" style="mask:url(#id5)" d="M1811.92 2677.62c8.37,2.88 16.47,6.31 24.28,10.25 5.45,-16.6 21.14,-38.53 45.8,-55.83l20.99 0 0 14.24c-25.2,15.51 -47.31,40.75 -55.67,73.79 -10.16,-6.64 -22.41,-12.21 -35.41,-16.56l0 -25.89z"/>
     <path class="fil1" d="M1877.43 2629.55c-0.47,5.94 -0.71,11.71 -0.71,17.28 0,22.98 0.65,45.55 6.46,67.91 0.93,3.58 1.96,7.15 3.02,10.7l-27.91 0c-5.64,-24.08 -8.65,-48.71 -9.01,-73.46l28.16 -22.43z"/>
     <path class="fil7" d="M1875.13 2629.55c-0.47,5.93 -0.7,11.71 -0.7,17.28 0,42.12 3.26,58.17 9.38,78.61l-23.18 0c-5.96,-25.23 -9.11,-51.55 -9.11,-78.61l23.61 -17.28z"/>
     <path class="fil3" style="mask:url(#id7)" d="M1893.72 2544.02c-11.81,34.68 -19.1,71.18 -19.28,101.65l-22.91 0c0.12,-35.41 5.63,-69.56 15.77,-101.65l26.43 0z"/>
     <path class="fil1" d="M1843.93 2571.43c19.19,8.82 36.62,20.43 51.85,34.23l-16.07 22.57c-16.39,-15.41 -35.82,-27.79 -57.48,-36.14l18.21 -85.75 -0.02 4.42c0,20.27 1.17,40.53 3.5,60.66z"/>
     <path class="fil8" d="M1838.16 2506.35l-0.02 4.42c0,21.05 1.25,41.81 3.67,62.21 21.24,9.6 40.52,22.78 57.07,38.75 1.62,1.57 3.22,3.16 4.79,4.78 -7.15,3.36 -14.06,7.27 -20.66,11.73l-1.23 -1.18c-17.03,-16.12 -37.22,-28.93 -59.54,-37.41l0 -83.3 15.92 0z"/>
    </g>
    <g id="_2761593661312">
     <polygon class="fil9" points="124.83,2218.11 129.75,2290.7 105.63,2365.23 130.46,2485.22 124.82,2577.55 89.58,2596.58 96.07,2667.8 117.21,2703.74 210.04,2678.88 305.86,2708.9 280.52,2739.8 94.25,2739.8 -4.14,2739.8 -4.14,2170.88 63.95,2251.99 "/>
     <path class="fil1" d="M111.24 2571.43c-60.19,27.68 -103.06,82.76 -115.38,147.16l0 21.21 24.68 0c6.65,-68.39 52.71,-126.93 117.6,-149.62 0.94,-0.33 1.53,-1.17 1.53,-2.17l0 -24.1c0,-0.05 -0,-0.11 -0.01,-0.16 1.7,-17.61 2.56,-35.3 2.56,-52.99 0,-138.45 -51.65,-270.52 -145.59,-372.21 -0.23,-0.25 -0.49,-0.43 -0.78,-0.56l0 41.45c77.13,93.54 118.88,209.96 118.88,331.32 0,20.27 -1.17,40.53 -3.5,60.66z"/>
     <path class="fil10" d="M-4.14 2175.86c75.64,90.77 121.17,207.52 121.17,334.91 0,21.05 -1.25,41.81 -3.67,62.21 -65.09,29.44 -111.8,92.37 -118.12,166.82l23 0c6.77,-70.57 54.5,-129.18 119.14,-151.79l0 -24.1 -0.03 0.01c1.7,-17.49 2.58,-35.21 2.58,-53.15 0,-142.58 -54.64,-272.37 -144.08,-369.66l0 34.76z"/>
     <path class="fil3" style="mask:url(#id9)" d="M79.94 2316.89c12.33,30.88 21.79,63.21 28.07,96.66l23.29 0c-6,-33.37 -15.02,-65.69 -26.79,-96.66l-24.58 0z"/>
     <path class="fil1" d="M129.22 2204.12c-54.41,15.13 -101.68,49.3 -133.36,95.86l0 57.18c0.54,-0.23 0.99,-0.67 1.22,-1.26 20.98,-52.64 62.55,-94.86 114.75,-116.71 0.44,5.54 1.72,15.1 1.96,17.44 0.63,6.07 1.79,13.84 1.79,19.86 0,72.82 -37.3,140.03 -98.73,178.75 -0.55,0.34 -0.91,0.86 -1.03,1.46 -0.15,0.65 -0.02,1.31 0.4,1.87 35.14,47.24 62.24,129.38 62.24,188.26 0,22.98 -0.65,45.55 -6.46,67.91 -2.19,8.43 -4.9,16.75 -7.47,25.07l28.66 0c8.5,-30.26 12.75,-61.54 12.75,-92.98 0,-65.15 -18.24,-128.46 -53.1,-183.47 57.03,-45.36 90.22,-113.79 90.22,-186.87 0,-24.06 -3.58,-47.96 -10.72,-70.94 -0.27,-0.86 -0.97,-1.46 -1.86,-1.59 -0.45,-0.07 -0.88,-0.01 -1.26,0.16z"/>
     <path class="fil11" d="M130.14 2206.24c-55.74,15.42 -103.21,50.75 -134.28,97.86l0 48.72c21.9,-53.2 64.68,-95.59 118.12,-116.99l0.01 -0.01c-0.12,0.62 3.87,35.96 3.87,40.66 0,76.11 -39.85,142.9 -99.81,180.69l0.07 0.02 -0.07 0.01c35.3,47.46 62.69,130.29 62.69,189.63 0,51.34 -4.84,63.95 -13.81,92.98l23.88 0c8.36,-29.55 12.84,-60.74 12.84,-92.98 0,-67.76 -19.77,-130.9 -53.85,-183.98l-0.01 -0.01c55.38,-43.25 90.98,-110.64 90.98,-186.35 0,-24.47 -3.71,-48.06 -10.62,-70.26l-0.02 0.02 0 -0z"/>
     <path class="fil3" style="mask:url(#id11)" d="M110.51 2212.62c-35.46,13.26 -66.88,34.8 -91.91,62.26l0 27.88 6.41 0c22.29,-28.53 51.67,-51.25 85.5,-65.5l0 -24.64z"/>
     <path class="fil1" d="M97.63 2293.75c-16.13,-37.43 -36.47,-73.1 -60.78,-106.34l-13.94 27.84c20.47,29.66 37.68,61.18 51.48,94.08l23.25 -15.58z"/>
     <path class="fil12" d="M22.9 2211.24c21.3,30.48 39.45,63.34 53.96,98.09l20.77 0 0 -9.7c-16.81,-40.05 -38.23,-77.68 -63.63,-112.21l-11.09 0 0 23.83z"/>
     <path class="fil1" d="M120.43 2684.3c-7.18,-18.98 -23.51,-37.13 -39,-49.32 -24.59,-19.36 -54.19,-30.6 -85.35,-33.18l-0.21 -0.01 0 29.42c49.52,0.29 97.55,42.23 109.5,89.49 0.21,0.83 0.76,1.44 1.55,1.75 0.79,0.31 1.61,0.23 2.33,-0.24 26.16,-17.08 66.35,-27.02 97.44,-27.02 27.91,0 51.86,5.77 76.28,18.43 -5.92,9.27 -13.44,17.46 -22.19,24.15 -0.66,0.5 -1.02,1.25 -1.01,2.03l42.23 0c8.5,-10.87 15.15,-23.1 19.63,-36.16 0.37,-1.09 0,-2.25 -0.94,-2.92 -33.42,-23.67 -73.03,-36.21 -113.98,-36.21 -29.95,0 -59.35,6.71 -86.26,19.8z"/>
     <path class="fil1" d="M120.43 2684.3c-7.18,-18.98 -23.51,-37.13 -39,-49.32 -1.27,-1 -2.56,-1.98 -3.86,-2.94l-25.38 0 0 17.08c25.76,16.67 46,43.17 53.18,71.59 0.21,0.83 0.76,1.44 1.55,1.75 0.79,0.31 1.61,0.23 2.33,-0.24 9.78,-6.38 21.52,-11.77 34.01,-16.01l0 -31.28c-7.77,2.63 -15.4,5.76 -22.83,9.38z"/>
     <path class="fil13" d="M286.58 2712.63c-6.3,10.52 -14.55,19.74 -24.26,27.16l36.4 0c8.84,-10.93 15.82,-23.42 20.47,-36.99 -31.78,-22.51 -70.6,-35.74 -112.51,-35.74 -31.55,0 -61.34,7.5 -87.71,20.81 -9.89,-30.1 -53.44,-77.75 -123.11,-83.52l0 24.3c41.6,0.24 97.49,34.11 111.98,91.42 26.58,-17.35 67.34,-27.44 98.84,-27.44 31.5,0 56.09,7.24 79.89,20z"/>
     <path class="fil3" style="mask:url(#id13)" d="M143.26 2677.62c-8.37,2.88 -16.47,6.31 -24.28,10.25 -5.45,-16.6 -21.14,-38.53 -45.8,-55.83l-20.99 0 0 14.24c25.2,15.51 47.31,40.75 55.67,73.79 10.16,-6.64 22.41,-12.21 35.41,-16.56l0 -25.89z"/>
     <path class="fil1" d="M77.74 2629.55c0.47,5.94 0.71,11.71 0.71,17.28 0,22.98 -0.65,45.55 -6.46,67.91 -0.93,3.58 -1.96,7.15 -3.02,10.7l27.91 0c5.64,-24.08 8.65,-48.71 9.01,-73.46l-28.16 -22.43z"/>
     <path class="fil14" d="M80.04 2629.55c0.47,5.93 0.7,11.71 0.7,17.28 0,42.12 -3.26,58.17 -9.38,78.61l23.18 0c5.96,-25.23 9.11,-51.55 9.11,-78.61l-23.61 -17.28z"/>
     <path class="fil3" style="mask:url(#id15)" d="M61.45 2544.02c11.81,34.68 19.1,71.18 19.28,101.65l22.91 0c-0.12,-35.41 -5.63,-69.56 -15.77,-101.65l-26.43 0z"/>
     <path class="fil1" d="M111.24 2571.43c-19.19,8.82 -36.62,20.43 -51.85,34.23l16.07 22.57c16.39,-15.41 35.82,-27.79 57.48,-36.14l-18.21 -85.75 0.02 4.42c0,20.27 -1.17,40.53 -3.5,60.66z"/>
     <path class="fil15" d="M117.02 2506.35l0.02 4.42c0,21.05 -1.25,41.81 -3.67,62.21 -21.24,9.6 -40.52,22.78 -57.07,38.75 -1.62,1.57 -3.22,3.16 -4.79,4.78 7.15,3.36 14.06,7.27 20.66,11.73l1.23 -1.18c17.03,-16.12 37.22,-28.93 59.54,-37.41l0 -83.3 -15.92 0z"/>
    </g>
    <g id="_2761593659008">
     <polygon class="fil16" points="1819.77,-3.03 1830.98,44.32 1857.62,56.59 1912.19,40.26 1934.59,82.38 1904.56,84.5 1900.75,133.55 1913.44,170.76 1957.4,192.29 1957.4,-3.04 "/>
     <path class="fil1" d="M1957.4 88.58c-12.82,7.27 -26.32,10.31 -41.24,10.08 -2.5,6.67 -3.87,13.9 -3.87,21.44 0,28.23 19.11,51.98 45.1,59.05l0 26.22c-40.24,-7.54 -70.67,-42.84 -70.67,-85.27 0,-18.52 5.35,-34.27 15.56,-49.58 5.18,1.69 10.71,2.6 16.46,2.6 15.23,0 28.96,-6.41 38.66,-16.67l0 32.12z"/>
     <path class="fil17" d="M1957.4 84.88l-0.01 -23.89c-10.38,9.79 -24.13,15.34 -38.65,15.34 -5.11,0 -10.18,-0.69 -15.09,-2.05 -9.02,14.16 -13.73,28.78 -13.73,45.83 0,40.09 28.49,74.43 67.48,82.02l-0 -19.66c-28.28,-7.27 -48.3,-32.9 -48.3,-62.36 0,-7.71 1.37,-15.34 4.07,-22.56l0.79 -2.11 2.26 0.03c14.93,0.22 28.43,-2.95 41.19,-10.59z"/>
     <path class="fil3" style="mask:url(#id17)" d="M1957.4 84.88l-0.01 -23.89c-10.38,9.79 -24.13,15.34 -38.65,15.34 -5.11,0 -10.18,-0.69 -15.09,-2.05 -3.88,6.09 -6.96,12.26 -9.21,18.67l0 12.31 16.38 0c0.62,-2.61 1.4,-5.19 2.35,-7.72l0.79 -2.11 2.26 0.03c14.93,0.22 28.43,-2.95 41.19,-10.59z"/>
     <path class="fil1" d="M1904.96 58.75c-11.9,5.86 -24.96,8.89 -38.27,8.89 -17.55,0 -32.8,-4.84 -47.54,-14.23 -1.21,-0.77 -1.75,-2.18 -1.36,-3.56 1.29,-4.63 1.93,-9.42 1.93,-14.23 0,-13.58 -5.15,-26.58 -14.47,-36.46 -0.58,-0.62 -0.88,-1.4 -0.88,-2.19l30.8 0c7.26,12.81 10.29,26.44 10.08,41.23l0 0c6.86,2.57 14.12,3.87 21.44,3.87 22.65,0 43.49,-12.56 54.09,-32.53 0.45,-0.84 1.23,-1.41 2.09,-1.61 0.55,-0.13 1.15,-0.11 1.72,0.07 0.5,0.16 0.94,0.44 1.28,0.79 0.16,0.16 0.3,0.34 0.42,0.53 0.47,0.73 0.63,1.64 0.39,2.53 -7.13,26.94 4.98,55.38 29.29,68.99 0.47,0.26 0.94,0.52 1.41,0.77l0 27.84c-4.8,-1.68 -9.44,-3.8 -13.89,-6.29 -17.69,-9.91 -31.26,-25.59 -38.54,-44.41z"/>
     <path class="fil18" d="M1831.47 -3.04l-23.89 0.01c9.79,10.38 15.34,24.13 15.34,38.65 0,5.11 -0.68,10.18 -2.05,15.09 14.16,9.02 28.78,13.73 45.83,13.73 14.41,0 28.08,-3.68 40.03,-10.21l16.89 -43.2c-7.47,28.23 5.12,58.21 30.82,72.6 0.98,0.55 1.97,1.07 2.97,1.56l0 20.86c-4.15,-1.51 -8.25,-3.4 -12.34,-5.69 -18.63,-10.42 -31.89,-27.11 -38.34,-46.13l16.89 -43.21 0 -0.02c-10.94,20.63 -32.62,34.25 -56.91,34.25 -7.71,0 -15.34,-1.37 -22.56,-4.07l-2.11 -0.79 0.03 -2.25c0.22,-14.94 -2.95,-28.43 -10.59,-41.19z"/>
    </g>
    <g id="_2761591840144">
     <polygon class="fil19" points="135.4,-3.03 124.19,44.32 97.55,56.59 42.99,40.26 20.59,82.38 50.61,84.5 54.42,133.55 41.73,170.76 -2.23,192.29 -2.23,-3.04 "/>
     <path class="fil1" d="M-2.23 88.58c12.82,7.27 26.32,10.31 41.24,10.08 2.5,6.67 3.87,13.9 3.87,21.44 0,28.23 -19.11,51.98 -45.1,59.05l0 26.22c40.24,-7.54 70.67,-42.84 70.67,-85.27 0,-18.52 -5.35,-34.27 -15.56,-49.58 -5.18,1.69 -10.71,2.6 -16.46,2.6 -15.23,0 -28.96,-6.41 -38.66,-16.67l0 32.12z"/>
     <path class="fil20" d="M-2.23 84.88l0.01 -23.89c10.38,9.79 24.13,15.34 38.65,15.34 5.11,0 10.18,-0.69 15.09,-2.05 9.02,14.16 13.73,28.78 13.73,45.83 0,40.09 -28.49,74.43 -67.48,82.02l0 -19.66c28.28,-7.27 48.3,-32.9 48.3,-62.36 0,-7.71 -1.37,-15.34 -4.07,-22.56l-0.79 -2.11 -2.26 0.03c-14.93,0.22 -28.43,-2.95 -41.19,-10.59z"/>
     <path class="fil3" style="mask:url(#id19)" d="M-2.23 84.88l0.01 -23.89c10.38,9.79 24.13,15.34 38.65,15.34 5.11,0 10.18,-0.69 15.09,-2.05 3.88,6.09 6.96,12.26 9.21,18.67l0 12.31 -16.38 0c-0.62,-2.61 -1.4,-5.19 -2.35,-7.72l-0.79 -2.11 -2.26 0.03c-14.93,0.22 -28.43,-2.95 -41.19,-10.59z"/>
     <path class="fil1" d="M50.21 58.75c11.9,5.86 24.96,8.89 38.27,8.89 17.55,0 32.8,-4.84 47.54,-14.23 1.21,-0.77 1.75,-2.18 1.36,-3.56 -1.29,-4.63 -1.93,-9.42 -1.93,-14.23 0,-13.58 5.15,-26.58 14.47,-36.46 0.58,-0.62 0.88,-1.4 0.88,-2.19l-30.8 0c-7.26,12.81 -10.29,26.44 -10.08,41.23l-0 0c-6.86,2.57 -14.12,3.87 -21.44,3.87 -22.65,0 -43.49,-12.56 -54.09,-32.53 -0.45,-0.84 -1.23,-1.41 -2.09,-1.61 -0.55,-0.13 -1.15,-0.11 -1.72,0.07 -0.5,0.16 -0.94,0.44 -1.28,0.79 -0.16,0.16 -0.3,0.34 -0.42,0.53 -0.47,0.73 -0.63,1.64 -0.39,2.53 7.13,26.94 -4.98,55.38 -29.29,68.99 -0.47,0.26 -0.94,0.52 -1.41,0.77l0 27.84c4.8,-1.68 9.44,-3.8 13.89,-6.29 17.69,-9.91 31.26,-25.59 38.54,-44.41z"/>
     <path class="fil21" d="M123.71 -3.04l23.89 0.01c-9.79,10.38 -15.34,24.13 -15.34,38.65 0,5.11 0.68,10.18 2.05,15.09 -14.16,9.02 -28.78,13.73 -45.83,13.73 -14.41,0 -28.08,-3.68 -40.03,-10.21l-16.89 -43.2c7.47,28.23 -5.12,58.21 -30.82,72.6 -0.98,0.55 -1.97,1.07 -2.97,1.56l0 20.86c4.15,-1.51 8.25,-3.4 12.34,-5.69 18.63,-10.42 31.89,-27.11 38.34,-46.13l-16.89 -43.21 0 -0.02c10.94,20.63 32.62,34.25 56.91,34.25 7.71,0 15.34,-1.37 22.56,-4.07l2.11 -0.79 -0.03 -2.25c-0.22,-14.94 2.95,-28.43 10.59,-41.19z"/>
    </g>
   </g>
  </g>
  <polygon class="fil22" points="1955.17,2731.03 -0,2731.03 -0,0 1955.17,0 "/>
 </g>
</svg>
