<?xml version="1.0" encoding="UTF-8"?>
<!DOCTYPE svg PUBLIC "-//W3C//DTD SVG 1.1//EN" "http://www.w3.org/Graphics/SVG/1.1/DTD/svg11.dtd">
<!-- Creator: CorelDRAW 2020 (64 Bit) -->
<svg xmlns="http://www.w3.org/2000/svg" xml:space="preserve" width="63mm" height="88mm" version="1.1" style="shape-rendering:geometricPrecision; text-rendering:geometricPrecision; image-rendering:optimizeQuality; fill-rule:evenodd; clip-rule:evenodd"
viewBox="0 0 5531.32 7726.29"
 xmlns:xlink="http://www.w3.org/1999/xlink"
 xmlns:xodm="http://www.corel.com/coreldraw/odm/2003">
 <defs>
  <style type="text/css">
   <![CDATA[
    .fil19 {fill:none}
    .fil1 {fill:#263549}
    .fil5 {fill:url(#id33)}
    .fil3 {fill:url(#id34)}
    .fil6 {fill:url(#id35)}
    .fil0 {fill:url(#id36)}
    .fil2 {fill:url(#id37)}
    .fil4 {fill:url(#id38)}
    .fil7 {fill:url(#id39)}
    .fil13 {fill:url(#id40)}
    .fil11 {fill:url(#id41)}
    .fil8 {fill:url(#id42)}
    .fil17 {fill:url(#id43)}
    .fil18 {fill:url(#id44)}
    .fil15 {fill:url(#id45)}
    .fil9 {fill:url(#id46)}
    .fil12 {fill:url(#id47)}
    .fil14 {fill:url(#id48)}
    .fil10 {fill:url(#id49)}
    .fil16 {fill:url(#id50)}
   ]]>
  </style>
   <clipPath id="id0">
    <path d="M5531.32 7726.29l-5531.32 0 0 -7726.29 5531.32 0 0 7726.29z"/>
   </clipPath>
      <mask id="id1">
  <radialGradient id="id2" gradientUnits="userSpaceOnUse" cx="327.54" cy="323.69" r="123.17" fx="327.54" fy="323.69">
   <stop offset="0" style="stop-opacity:1; stop-color:white"/>
   <stop offset="1" style="stop-opacity:0; stop-color:white"/>
  </radialGradient>
       <rect style="fill:url(#id2)" x="-15.72" y="83.2" width="305.63" height="298.42"/>
      </mask>
      <mask id="id3">
  <radialGradient id="id4" gradientUnits="userSpaceOnUse" cx="5584.67" cy="323.69" r="123.17" fx="5584.67" fy="323.69">
   <stop offset="0" style="stop-opacity:1; stop-color:white"/>
   <stop offset="1" style="stop-opacity:0; stop-color:white"/>
  </radialGradient>
       <rect style="fill:url(#id4)" x="5241.41" y="83.2" width="305.63" height="298.42"/>
      </mask>
      <mask id="id5">
  <radialGradient id="id6" gradientUnits="userSpaceOnUse" cx="5165.27" cy="8015.17" r="105.95" fx="5165.27" fy="8015.17">
   <stop offset="0" style="stop-opacity:1; stop-color:white"/>
   <stop offset="1" style="stop-opacity:0; stop-color:white"/>
  </radialGradient>
       <rect style="fill:url(#id6)" x="5200.12" y="7405.21" width="157.66" height="287.75"/>
      </mask>
      <mask id="id7">
  <radialGradient id="id8" gradientUnits="userSpaceOnUse" cx="5913.82" cy="7010.21" r="98.69" fx="5913.82" fy="7010.21">
   <stop offset="0" style="stop-opacity:1; stop-color:white"/>
   <stop offset="1" style="stop-opacity:0; stop-color:white"/>
  </radialGradient>
       <rect style="fill:url(#id8)" x="5305.29" y="7195.84" width="132.55" height="291.73"/>
      </mask>
      <mask id="id9">
  <radialGradient id="id10" gradientUnits="userSpaceOnUse" cx="5519.99" cy="5982.72" r="113.91" fx="5519.99" fy="5982.72">
   <stop offset="0" style="stop-opacity:1; stop-color:white"/>
   <stop offset="1" style="stop-opacity:0; stop-color:white"/>
  </radialGradient>
       <rect style="fill:url(#id10)" x="5120.06" y="6650.43" width="185.98" height="369.63"/>
      </mask>
      <mask id="id11">
  <radialGradient id="id12" gradientUnits="userSpaceOnUse" cx="4860.8" cy="7581.33" r="110.58" fx="4860.8" fy="7581.33">
   <stop offset="0" style="stop-opacity:1; stop-color:white"/>
   <stop offset="1" style="stop-opacity:0; stop-color:white"/>
  </radialGradient>
       <rect style="fill:url(#id12)" x="5087.72" y="7039.3" width="245.35" height="310.68"/>
      </mask>
      <mask id="id13">
  <radialGradient id="id14" gradientUnits="userSpaceOnUse" cx="5016.86" cy="6728.82" r="127.24" fx="5016.86" fy="6728.82">
   <stop offset="0" style="stop-opacity:1; stop-color:white"/>
   <stop offset="1" style="stop-opacity:0; stop-color:white"/>
  </radialGradient>
       <rect style="fill:url(#id14)" x="5173.4" y="6636.95" width="282.76" height="209.44"/>
      </mask>
      <mask id="id15">
  <radialGradient id="id16" gradientUnits="userSpaceOnUse" cx="5138.4" cy="6475.76" r="0" fx="5138.4" fy="6475.76">
   <stop offset="0" style="stop-opacity:1; stop-color:white"/>
   <stop offset="1" style="stop-opacity:0; stop-color:white"/>
  </radialGradient>
       <rect style="fill:url(#id16)" x="5129.62" y="6466.98" width="220.63" height="298.7"/>
      </mask>
      <mask id="id17">
  <radialGradient id="id18" gradientUnits="userSpaceOnUse" cx="5209.14" cy="6966.3" r="0" fx="5209.14" fy="6966.3">
   <stop offset="0" style="stop-opacity:1; stop-color:white"/>
   <stop offset="1" style="stop-opacity:0; stop-color:white"/>
  </radialGradient>
       <rect style="fill:url(#id18)" x="5200.36" y="6957.52" width="211.61" height="246.87"/>
      </mask>
      <mask id="id19">
  <radialGradient id="id20" gradientUnits="userSpaceOnUse" cx="138.7" cy="8015.17" r="105.95" fx="138.7" fy="8015.17">
   <stop offset="0" style="stop-opacity:1; stop-color:white"/>
   <stop offset="1" style="stop-opacity:0; stop-color:white"/>
  </radialGradient>
       <rect style="fill:url(#id20)" x="173.54" y="7405.21" width="157.66" height="287.75"/>
      </mask>
      <mask id="id21">
  <radialGradient id="id22" gradientUnits="userSpaceOnUse" cx="702" cy="7010.21" r="98.69" fx="702" fy="7010.21">
   <stop offset="0" style="stop-opacity:1; stop-color:white"/>
   <stop offset="1" style="stop-opacity:0; stop-color:white"/>
  </radialGradient>
       <rect style="fill:url(#id22)" x="93.48" y="7195.84" width="132.55" height="291.73"/>
      </mask>
      <mask id="id23">
  <radialGradient id="id24" gradientUnits="userSpaceOnUse" cx="625.21" cy="5982.72" r="113.91" fx="625.21" fy="5982.72">
   <stop offset="0" style="stop-opacity:1; stop-color:white"/>
   <stop offset="1" style="stop-opacity:0; stop-color:white"/>
  </radialGradient>
       <rect style="fill:url(#id24)" x="225.28" y="6650.43" width="185.98" height="369.63"/>
      </mask>
      <mask id="id25">
  <radialGradient id="id26" gradientUnits="userSpaceOnUse" cx="-28.67" cy="7581.33" r="110.58" fx="-28.67" fy="7581.33">
   <stop offset="0" style="stop-opacity:1; stop-color:white"/>
   <stop offset="1" style="stop-opacity:0; stop-color:white"/>
  </radialGradient>
       <rect style="fill:url(#id26)" x="198.25" y="7039.3" width="245.35" height="310.68"/>
      </mask>
      <mask id="id27">
  <radialGradient id="id28" gradientUnits="userSpaceOnUse" cx="-81.38" cy="6728.82" r="127.24" fx="-81.38" fy="6728.82">
   <stop offset="0" style="stop-opacity:1; stop-color:white"/>
   <stop offset="1" style="stop-opacity:0; stop-color:white"/>
  </radialGradient>
       <rect style="fill:url(#id28)" x="75.16" y="6636.95" width="282.76" height="209.44"/>
      </mask>
      <mask id="id29">
  <radialGradient id="id30" gradientUnits="userSpaceOnUse" cx="189.86" cy="6475.76" r="0" fx="189.86" fy="6475.76">
   <stop offset="0" style="stop-opacity:1; stop-color:white"/>
   <stop offset="1" style="stop-opacity:0; stop-color:white"/>
  </radialGradient>
       <rect style="fill:url(#id30)" x="181.08" y="6466.98" width="220.63" height="298.7"/>
      </mask>
      <mask id="id31">
  <radialGradient id="id32" gradientUnits="userSpaceOnUse" cx="128.12" cy="6966.3" r="0" fx="128.12" fy="6966.3">
   <stop offset="0" style="stop-opacity:1; stop-color:white"/>
   <stop offset="1" style="stop-opacity:0; stop-color:white"/>
  </radialGradient>
       <rect style="fill:url(#id32)" x="119.34" y="6957.52" width="211.61" height="246.87"/>
      </mask>
  <linearGradient id="id33" gradientUnits="userSpaceOnUse" x1="5304.71" y1="-8.38" x2="5304.71" y2="400.4">
   <stop offset="0" style="stop-opacity:1; stop-color:#5BCBF5"/>
   <stop offset="0.490196" style="stop-opacity:1; stop-color:#00AFEF"/>
   <stop offset="1" style="stop-opacity:1; stop-color:#005C8B"/>
  </linearGradient>
  <linearGradient id="id34" gradientUnits="userSpaceOnUse" xlink:href="#id33" x1="101.4" y1="-8.38" x2="101.4" y2="558.29">
  </linearGradient>
  <linearGradient id="id35" gradientUnits="userSpaceOnUse" xlink:href="#id33" x1="5429.91" y1="-8.38" x2="5429.91" y2="558.29">
  </linearGradient>
  <linearGradient id="id36" gradientUnits="userSpaceOnUse" x1="210.88" y1="525.77" x2="210.88" y2="-8.38">
   <stop offset="0" style="stop-opacity:1; stop-color:#2F3A67"/>
   <stop offset="1" style="stop-opacity:1; stop-color:#201E1E"/>
  </linearGradient>
  <linearGradient id="id37" gradientUnits="userSpaceOnUse" xlink:href="#id33" x1="226.61" y1="-8.38" x2="226.61" y2="400.4">
  </linearGradient>
  <linearGradient id="id38" gradientUnits="userSpaceOnUse" xlink:href="#id36" x1="5320.45" y1="525.77" x2="5320.45" y2="-8.38">
  </linearGradient>
  <linearGradient id="id39" gradientUnits="userSpaceOnUse" xlink:href="#id36" x1="5103.98" y1="6080.33" x2="5103.98" y2="7751.22">
  </linearGradient>
  <linearGradient id="id40" gradientUnits="userSpaceOnUse" xlink:href="#id36" x1="427.34" y1="6080.33" x2="427.34" y2="7751.22">
  </linearGradient>
  <linearGradient id="id41" gradientUnits="userSpaceOnUse" xlink:href="#id33" x1="5535.19" y1="5944.41" x2="5535.19" y2="6846.3">
  </linearGradient>
  <linearGradient id="id42" gradientUnits="userSpaceOnUse" xlink:href="#id33" x1="5535.19" y1="6005.33" x2="5535.19" y2="6832.76">
  </linearGradient>
  <linearGradient id="id43" gradientUnits="userSpaceOnUse" xlink:href="#id33" x1="441.15" y1="5944.41" x2="441.15" y2="6846.3">
  </linearGradient>
  <linearGradient id="id44" gradientUnits="userSpaceOnUse" xlink:href="#id33" x1="619.52" y1="6005.33" x2="619.52" y2="6832.76">
  </linearGradient>
  <linearGradient id="id45" gradientUnits="userSpaceOnUse" xlink:href="#id33" x1="2467.92" y1="6314.44" x2="2467.92" y2="7561.32">
  </linearGradient>
  <linearGradient id="id46" gradientUnits="userSpaceOnUse" xlink:href="#id33" x1="7106.59" y1="6314.44" x2="7106.59" y2="7561.32">
  </linearGradient>
  <linearGradient id="id47" gradientUnits="userSpaceOnUse" xlink:href="#id33" x1="5535.19" y1="6005.33" x2="5535.19" y2="6832.76">
  </linearGradient>
  <linearGradient id="id48" gradientUnits="userSpaceOnUse" xlink:href="#id33" x1="390.55" y1="6005.33" x2="390.55" y2="6832.76">
  </linearGradient>
  <linearGradient id="id49" gradientUnits="userSpaceOnUse" xlink:href="#id33" x1="5746.45" y1="6615.44" x2="5746.45" y2="7180.09">
  </linearGradient>
  <linearGradient id="id50" gradientUnits="userSpaceOnUse" xlink:href="#id33" x1="637.59" y1="6615.44" x2="637.59" y2="7180.09">
  </linearGradient>
 </defs>
 <g id="Camada_x0020_1">
  <metadata id="CorelCorpID_0Corel-Layer"/>
  <g>
  </g>
  <g style="clip-path:url(#id0)">
   <g>
    <g id="_2725194107920">
     <polygon class="fil0" points="428.68,-8.38 -6.94,-8.38 -6.94,525.77 136.54,480.55 168.45,354.93 107.63,224.33 199.36,109.69 367.85,72.79 "/>
     <path class="fil1" d="M376.24 -8.38c-16.12,28.58 -35.99,56.17 -69.79,63.64 -14.76,3.27 -30.62,3.55 -45.4,5.35 -65.74,3.9 -132.73,41.98 -156.83,105.63 -12.17,32.14 -35.15,112.17 -58.96,135.39 -13.8,13.48 -33.81,20.03 -52.21,24.76l0 83.08c0.55,-0.01 1.12,-0.06 1.69,-0.17 65.75,-12.44 118.14,-39.11 144.18,-103.46 15.17,-37.49 19.27,-90.19 41.76,-122.03 70.95,-100.53 175.34,27.13 287.48,-188 0.71,-1.35 1.06,-2.77 1.06,-4.18l-92.99 0z"/>
     <path class="fil2" d="M460.15 -8.38c-111.54,213.98 -210.73,79.12 -286.86,186.96 -47.6,67.43 -6.33,188.94 -180.23,221.82l0 -64.68c79.18,-19.94 74.34,-46.65 119.62,-166.28 20.19,-53.37 78.26,-95.62 149.05,-99.82 47.34,-5.75 80.49,2.53 124.88,-78l73.55 0z"/>
     <path class="fil1" style="mask:url(#id1)" d="M281.13 127.26c-39.51,3.52 -75.73,5.82 -107.83,51.31 -38.51,54.55 -18.89,144.48 -102.02,194.26l-78.21 0 0 -37.12c79.18,-19.94 74.34,-46.65 119.62,-166.28 11.95,-31.57 37.14,-59.25 70.37,-77.46l98.08 0 0 35.29z"/>
     <path class="fil1" d="M0.7 485.76l-5.56 -1.31c-0.7,-0.17 -1.4,-0.25 -2.08,-0.26l0 83.15c98.8,0 217.05,-58.09 217.05,-170.66 0,-46.88 -12.7,-85.72 -34.61,-126.57 -16.29,-30.37 -38.14,-61.4 -48.77,-94.13 -4.71,-14.5 -7.06,-29.11 -6.5,-44.37 1.85,-50.14 59.97,-101.74 95.52,-133.22 2.02,-1.78 3.09,-4.23 3.06,-6.77l-113.4 0c-35.08,38.21 -64.53,83.53 -66.51,136.98 -4.2,113.76 89.82,171.02 89.82,268.08 0,60.54 -78.08,86.74 -128.02,89.09z"/>
     <path class="fil3" d="M209.75 -8.38c-47.53,42.09 -96.71,89.7 -98.55,139.65 -3.37,91.46 89.87,141.63 89.87,265.41 0,123.77 -141.63,161.62 -208,161.62l0 -65.04 6.79 1.61c56.27,-2.25 137.91,-32.05 137.91,-98.19 0,-100.49 -94,-154.89 -89.83,-267.73 1.98,-53.62 33.43,-99.06 69.84,-137.33l91.97 0z"/>
    </g>
    <g id="_2725194133744">
     <polygon class="fil4" points="5102.64,-8.38 5538.26,-8.38 5538.26,525.77 5394.78,480.55 5362.87,354.93 5423.69,224.33 5331.96,109.69 5163.47,72.79 "/>
     <path class="fil1" d="M5155.08 -8.38c16.12,28.58 35.99,56.17 69.79,63.64 14.76,3.27 30.62,3.55 45.4,5.35 65.74,3.9 132.73,41.98 156.83,105.63 12.17,32.14 35.15,112.17 58.96,135.39 13.8,13.48 33.81,20.03 52.21,24.76l0 83.08c-0.55,-0.01 -1.12,-0.06 -1.69,-0.17 -65.75,-12.44 -118.14,-39.11 -144.18,-103.46 -15.17,-37.49 -19.27,-90.19 -41.76,-122.03 -70.95,-100.53 -175.34,27.13 -287.48,-188 -0.71,-1.35 -1.06,-2.77 -1.06,-4.18l92.99 0z"/>
     <path class="fil5" d="M5071.17 -8.38c111.54,213.98 210.73,79.12 286.86,186.96 47.6,67.43 6.33,188.94 180.23,221.82l0 -64.68c-79.18,-19.94 -74.34,-46.65 -119.62,-166.28 -20.19,-53.37 -78.26,-95.62 -149.05,-99.82 -47.34,-5.75 -80.49,2.53 -124.88,-78l-73.55 0z"/>
     <path class="fil1" style="mask:url(#id3)" d="M5250.19 127.26c39.51,3.52 75.73,5.82 107.83,51.31 38.51,54.55 18.89,144.48 102.02,194.26l78.21 0 0 -37.12c-79.18,-19.94 -74.34,-46.65 -119.62,-166.28 -11.95,-31.57 -37.14,-59.25 -70.37,-77.46l-98.08 0 0 35.29z"/>
     <path class="fil1" d="M5530.62 485.76l5.56 -1.31c0.7,-0.17 1.4,-0.25 2.08,-0.26l0 83.15c-98.8,0 -217.05,-58.09 -217.05,-170.66 0,-46.88 12.7,-85.72 34.61,-126.57 16.29,-30.37 38.14,-61.4 48.77,-94.13 4.71,-14.5 7.06,-29.11 6.5,-44.37 -1.85,-50.14 -59.97,-101.74 -95.52,-133.22 -2.02,-1.78 -3.09,-4.23 -3.06,-6.77l113.4 0c35.08,38.21 64.53,83.53 66.51,136.98 4.2,113.76 -89.82,171.02 -89.82,268.08 0,60.54 78.08,86.74 128.02,89.09z"/>
     <path class="fil6" d="M5321.57 -8.38c47.53,42.09 96.71,89.7 98.55,139.65 3.37,91.46 -89.87,141.63 -89.87,265.41 0,123.77 141.63,161.62 208,161.62l0 -65.04 -6.79 1.61c-56.27,-2.25 -137.91,-32.05 -137.91,-98.19 0,-100.49 94,-154.89 89.83,-267.73 -1.98,-53.62 -33.43,-99.06 -69.84,-137.33l-91.97 0z"/>
    </g>
    <g id="_2725194121360">
     <polygon class="fil7" points="5544.84,6080.33 5544.84,7751.22 4663.11,7751.22 4672.29,7633.35 4788.94,7577.52 4970.38,7656.28 5184.74,7642.32 5336.75,7515.76 5233.6,7413.99 5155.83,7285.44 5190.73,7207.67 5121.94,7023.27 5168.8,6866.74 5163.83,6694.29 5209.7,6629.69 5163.83,6425.11 5227.63,6225.71 5435.01,6090.13 "/>
     <path class="fil1" d="M5224.61 7329.77c22.65,18.12 42.99,38.97 60.59,62.03 78.95,103.42 94.81,241 42.42,359.42l-91.79 0 2.71 -4.59c56.29,-95.45 49.38,-217.14 -18.03,-305.45 -40.09,-52.52 -76.86,-54.43 -94.23,-128.34 -6.26,-26.64 -5.44,-54.57 2.22,-80.82 14.21,-48.61 53.89,-81 96.53,-103.85 67.7,-44.5 108.26,-119.56 108.25,-200.78 0,-63.75 -26.42,-124.66 -72.92,-168.26 -84.12,-78.89 -131.5,-188.13 -131.5,-303.5 0,-229.74 186.25,-415.99 415.99,-415.99l0 81.39c-184.82,0 -334.6,149.78 -334.6,334.6 0,92.86 38.05,180.62 105.78,244.14 62.91,58.98 98.63,141.38 98.64,227.62 0.01,108.52 -54.35,209.43 -145.13,268.9l-3.02 1.95 -2.48 1.33c-21.72,11.73 -50.09,30.26 -57.41,55.29 -7.72,26.41 -0.85,54.91 17.98,74.91z"/>
     <path class="fil8" d="M5342.31 6927.38c0,-66.25 -27.43,-129.55 -75.77,-174.85l0.04 0c-79.19,-74.24 -128.69,-179.79 -128.69,-296.91 0,-224.76 182.2,-406.95 406.95,-406.95l0 63.3c-189.8,0 -343.64,153.83 -343.64,343.64 0,95.38 39.1,185.51 108.64,250.74 61.09,57.28 95.77,137.28 95.78,221.02 0.01,105.6 -53,203.49 -141.04,261.34l-2.36 1.55 -2.48 1.34c-24.19,12.97 -53.65,32.85 -61.79,60.7 -8.71,29.77 -0.85,61.76 20.53,84.12 21.79,17.38 41.84,37.67 59.53,60.84 80.24,105.12 91,241.47 39.7,353.93l-71.39 0c56.74,-96.23 53.23,-221.38 -18.63,-315.53 -39.94,-52.33 -75.93,-53.9 -92.61,-124.93 -5.72,-24.35 -5.41,-50.48 2.11,-76.21 13.78,-47.09 53.5,-77.74 92.63,-98.73 67.77,-44.52 112.51,-121.23 112.51,-208.43l-0.01 0z"/>
     <path class="fil1" style="mask:url(#id5)" d="M5289.99 7413.99c55.18,81.81 70.89,179.8 50.34,270.19l-65.41 0c23.29,-82.73 8.82,-175.04 -47.24,-248.5 -6.38,-8.36 -12.67,-15.43 -18.79,-21.7l81.09 0z"/>
     <path class="fil1" d="M4778.35 7540.38c14.8,0 29.16,2.31 43.35,6.5 33.11,9.77 64.02,29.07 95.38,43.5 40.6,18.68 78.75,28.38 123.73,28.38 174.55,0 315.91,-141.36 315.91,-315.91 0,-91.16 -38.43,-177.99 -107.68,-237.62 -81.57,-70.23 -129.24,-170.91 -129.24,-278.87 0,-169.18 116.32,-315.84 280.34,-355.36 61.01,-14.7 111.33,-80.51 136.5,-134.83l8.2 -17.71 0 151.82c-33.79,37.24 -76.13,67.88 -125.58,79.84 -127.62,30.86 -218.07,144.77 -218.07,276.24 0,84.22 37.31,162.4 100.94,217.19 87.22,75.09 135.97,184.45 135.97,299.3 0,219.48 -177.81,397.3 -397.3,397.3 -56.44,0 -106.63,-12.3 -157.76,-35.83 -27.43,-12.63 -55.59,-30.87 -84.39,-39.37 -6.65,-1.96 -13.36,-3.17 -20.31,-3.17 -44.72,0 -80.85,36.12 -80.85,80.85 0,10.69 2.04,21.95 4.43,32.35l1.44 6.3 0.49 9.96 -81.7 0c-3.55,-15.8 -6.05,-32.43 -6.05,-48.61 0,-89.64 72.6,-162.23 162.24,-162.23z"/>
     <path class="fil9" d="M4778.35 7549.42c84.09,0 133.29,78.37 262.46,78.37 179.55,0 324.95,-145.41 324.95,-324.95 0,-97.5 -42.88,-184.92 -110.82,-244.47l0.06 0c-77.17,-65.34 -126.16,-162.92 -126.16,-272.02 0,-168.31 116.57,-309.25 273.41,-346.57l0 -0.04c63.68,-15.79 116.03,-82.5 142.59,-139.78l0 116.63c-33.58,39.26 -76.75,72.4 -127.7,84.73 -131.55,31.8 -224.99,149.26 -224.99,285.03 0,86.89 38.49,167.56 104.09,224.04 85.21,73.37 132.82,180.22 132.82,292.45 0,214.48 -173.76,388.25 -388.25,388.25 -55.46,0 -103.87,-11.94 -153.97,-35.01 -26.81,-12.34 -57.87,-31.64 -85.61,-39.83 -7.52,-2.22 -15.02,-3.54 -22.87,-3.54 -49.71,0 -89.9,40.18 -89.9,89.89 0,11.26 2.13,23.42 4.65,34.37l1.26 5.51 0.43 8.72 -63.38 0c-4.06,-17.59 -6.27,-34.18 -6.27,-48.61 0,-84.65 68.54,-153.19 153.2,-153.19z"/>
     <path class="fil1" style="mask:url(#id7)" d="M5314.07 7478.79c32.7,-50.7 51.69,-111.09 51.69,-175.95 0,-34.24 -5.29,-67.23 -15.1,-98.22l65.97 0c8.2,31.77 12.43,64.76 12.43,98.22 0,63.35 -15.17,123.13 -42.06,175.95l-72.93 0z"/>
     <path class="fil1" style="mask:url(#id9)" d="M5208.8 7011.28c-49.98,-61.32 -79.96,-139.6 -79.96,-224.93 0,-44.79 8.26,-87.66 23.34,-127.14l69.06 0c-18.7,38.69 -29.1,81.9 -29.1,127.14 0,86.89 38.49,167.56 104.09,224.04l1.02 0.9 -88.46 0z"/>
     <path class="fil1" d="M5452.77 6636.37c30.84,-1.33 61.81,1.03 92.07,7.09l0 88.8 -2.24 -0.57c-28.06,-7.18 -57.17,-10.17 -86.1,-8.92 -163.14,7.06 -290.49,145.91 -283.45,309.05 7.06,163.15 145.91,290.49 309.05,283.45 20.41,-0.89 40.7,-3.85 60.51,-8.9l2.23 -0.57 0 88.75c-19.45,3.9 -39.18,6.28 -59.01,7.13 -211.01,9.13 -390.06,-155.11 -399.19,-366.12 -9.11,-211 155.11,-390.07 366.12,-399.18z"/>
     <path class="fil10" d="M5453.16 6645.39c31.46,-1.35 62.17,1.23 91.69,7.3l0 70.22c-28.29,-7.23 -58.09,-10.5 -88.74,-9.18 -168.36,7.28 -299.37,150.11 -292.1,318.48 7.28,168.36 150.12,299.36 318.48,292.09 21.46,-0.93 42.32,-4.07 62.35,-9.17l0 70.18c-19.28,3.96 -39.12,6.45 -59.4,7.33 -206.34,8.92 -380.85,-151.13 -389.77,-357.47 -8.92,-206.34 151.13,-380.85 357.48,-389.77z"/>
     <path class="fil1" style="mask:url(#id11)" d="M5165.11 7048.08c9.91,104.38 72.11,192.68 159.18,239.81l0 53.3 -44.9 0c-101.82,-60.16 -173.17,-167.37 -182.89,-293.12l68.61 0z"/>
     <path class="fil1" style="mask:url(#id13)" d="M5447.38 6714.24c-92.17,6.59 -172.41,53.88 -223.8,123.37l-41.4 0 0 -58.21c63.95,-76.57 158.13,-127.42 265.2,-133.67l0 68.52z"/>
     <path class="fil1" d="M5315.06 6837.61c-12.42,-29.39 -30.94,-56.19 -54.71,-78.48 -12.14,-11.38 -23.49,-23.39 -34.06,-35.94 28.25,-9.77 53.31,-22.73 68.56,-45.12 6.69,7.51 13.75,14.76 21.16,21.7 40.51,37.98 69.74,85.67 85.43,137.84l-86.39 0z"/>
     <path class="fil11" d="M5324.85 6837.61c-12.9,-31.93 -32.67,-61.03 -58.32,-85.08l0.04 0c-11.75,-11.01 -22.84,-22.7 -33.21,-35.04 7.97,-19.81 25.95,-31.43 53.28,-35.08 7.3,8.31 15.04,16.3 23.2,23.95 38.66,36.25 66.74,81.61 82.15,131.25 -18.36,18.75 -40.79,18.49 -67.14,0z"/>
     <path class="fil1" style="mask:url(#id15)" d="M5271.08 6756.9c-1.49,-1.47 -3,-2.92 -4.54,-4.36l0.04 0c-18.53,-17.38 -35.43,-36.46 -50.45,-57.01 7.92,-23.4 18.84,-45.51 32.33,-65.84 16.5,28.04 37.07,53.88 61.38,76.67 11.49,10.78 22.06,22.36 31.63,34.62l0 15.92 -70.39 0zm-104.09 -149.95c-16.38,-40.88 -26.33,-85.02 -28.59,-131.19l63.39 0c1.34,23 4.96,45.62 10.73,67.57 -17.38,19.5 -32.65,40.83 -45.53,63.62z"/>
     <path class="fil1" d="M5224.61 7329.77c4.62,3.7 9.14,7.51 13.56,11.42l-64.43 -19.94 -38.59 19.94c-3.35,-8.16 -6.32,-17.47 -8.88,-28.36 -6.26,-26.64 -5.44,-54.57 2.22,-80.82 14.21,-48.61 53.89,-81 96.53,-103.85 8.1,-5.34 15.82,-11.11 23.13,-17.27l26.11 23.93c9.55,12.43 36.03,1.62 43.54,15.28l0 7.43c-14.65,14.3 -30.79,27.31 -48.28,38.76l-3.02 1.95 -2.48 1.33c-21.72,11.73 -50.09,30.26 -57.41,55.29 -7.72,26.41 -0.85,54.91 17.98,74.91z"/>
     <path class="fil12" d="M5315.88 7146.63c-15.4,15.65 -32.55,29.77 -51.3,42.1l-2.36 1.55 -2.48 1.34c-24.19,12.97 -53.65,32.85 -61.79,60.7 -8.71,29.77 -0.85,61.76 20.53,84.12 1.95,1.55 3.9,3.13 5.82,4.75l-79.27 0c-3.8,-8.58 -7.16,-18.53 -9.95,-30.43 -5.72,-24.35 -5.41,-50.48 2.11,-76.21 13.78,-47.09 53.5,-77.74 92.63,-98.73 11.33,-7.44 22.01,-15.79 31.95,-24.93l30.45 0c8.74,11.39 16.64,23.32 23.67,35.73z"/>
     <path class="fil1" style="mask:url(#id17)" d="M5403.2 6966.3c-4.87,38.98 -16.98,76.3 -35.37,110.19 -13.13,-18.96 -28.03,-36.81 -44.56,-53.33 7.49,-17.99 12.92,-37.02 16.03,-56.86l63.9 0zm-87.32 180.33c-15.39,15.65 -32.56,29.78 -51.3,42.1l-2.36 1.55 -2.48 1.34c-2.36,1.26 -4.78,2.59 -7.21,3.99l-43.39 0 0 -47.7c6.8,-4.36 13.75,-8.37 20.67,-12.09 17.94,-11.78 34.24,-25.8 48.54,-41.7 14.4,16.23 26.95,33.84 37.53,52.5z"/>
    </g>
    <g id="_2725194120352">
     <polygon class="fil13" points="-13.52,6080.33 -13.52,7751.22 868.22,7751.22 859.03,7633.35 742.38,7577.52 560.94,7656.28 346.59,7642.32 194.57,7515.76 297.73,7413.99 375.49,7285.44 340.59,7207.67 409.38,7023.27 362.52,6866.74 367.49,6694.29 321.62,6629.69 367.49,6425.11 303.69,6225.71 96.32,6090.13 "/>
     <path class="fil1" d="M306.72 7329.77c-22.65,18.12 -42.99,38.97 -60.59,62.03 -78.95,103.42 -94.81,241 -42.42,359.42l91.79 0 -2.71 -4.59c-56.29,-95.45 -49.38,-217.14 18.03,-305.45 40.09,-52.52 76.86,-54.43 94.23,-128.34 6.26,-26.64 5.44,-54.57 -2.22,-80.82 -14.21,-48.61 -53.89,-81 -96.53,-103.85 -67.7,-44.5 -108.26,-119.56 -108.25,-200.78 0,-63.75 26.42,-124.66 72.92,-168.26 84.12,-78.89 131.5,-188.13 131.5,-303.5 0,-229.74 -186.25,-415.99 -415.99,-415.99l0 81.39c184.82,0 334.6,149.78 334.6,334.6 0,92.86 -38.05,180.62 -105.78,244.14 -62.91,58.98 -98.63,141.38 -98.64,227.62 -0.01,108.52 54.35,209.43 145.13,268.9l3.02 1.95 2.48 1.33c21.72,11.73 50.09,30.26 57.41,55.29 7.72,26.41 0.85,54.91 -17.98,74.91z"/>
     <path class="fil14" d="M189.01 6927.38c0,-66.25 27.43,-129.55 75.77,-174.85l-0.04 0c79.19,-74.24 128.69,-179.79 128.69,-296.91 0,-224.76 -182.2,-406.95 -406.95,-406.95l0 63.3c189.8,0 343.64,153.83 343.64,343.64 0,95.38 -39.1,185.51 -108.64,250.74 -61.09,57.28 -95.77,137.28 -95.78,221.02 -0.01,105.6 53,203.49 141.04,261.34l2.36 1.55 2.48 1.34c24.19,12.97 53.65,32.85 61.79,60.7 8.71,29.77 0.85,61.76 -20.53,84.12 -21.79,17.38 -41.84,37.67 -59.53,60.84 -80.24,105.12 -91,241.47 -39.7,353.93l71.39 0c-56.74,-96.23 -53.23,-221.38 18.63,-315.53 39.94,-52.33 75.93,-53.9 92.61,-124.93 5.72,-24.35 5.41,-50.48 -2.11,-76.21 -13.78,-47.09 -53.5,-77.74 -92.63,-98.73 -67.77,-44.52 -112.51,-121.23 -112.51,-208.43l0.01 0z"/>
     <path class="fil1" style="mask:url(#id19)" d="M241.33 7413.99c-55.18,81.81 -70.89,179.8 -50.34,270.19l65.41 0c-23.29,-82.73 -8.82,-175.04 47.24,-248.5 6.38,-8.36 12.67,-15.43 18.79,-21.7l-81.09 0z"/>
     <path class="fil1" d="M752.97 7540.38c-14.8,0 -29.16,2.31 -43.35,6.5 -33.11,9.77 -64.02,29.07 -95.38,43.5 -40.6,18.68 -78.75,28.38 -123.73,28.38 -174.55,0 -315.91,-141.36 -315.91,-315.91 0,-91.16 38.43,-177.99 107.68,-237.62 81.57,-70.23 129.24,-170.91 129.24,-278.87 0,-169.18 -116.32,-315.84 -280.34,-355.36 -61.01,-14.7 -111.33,-80.51 -136.5,-134.83l-8.2 -17.71 0 151.82c33.79,37.24 76.13,67.88 125.58,79.84 127.62,30.86 218.07,144.77 218.07,276.24 0,84.22 -37.31,162.4 -100.94,217.19 -87.22,75.09 -135.97,184.45 -135.97,299.3 0,219.48 177.81,397.3 397.3,397.3 56.44,0 106.63,-12.3 157.76,-35.83 27.43,-12.63 55.59,-30.87 84.39,-39.37 6.65,-1.96 13.36,-3.17 20.31,-3.17 44.72,0 80.85,36.12 80.85,80.85 0,10.69 -2.04,21.95 -4.43,32.35l-1.44 6.3 -0.49 9.96 81.7 0c3.55,-15.8 6.05,-32.43 6.05,-48.61 0,-89.64 -72.6,-162.23 -162.24,-162.23z"/>
     <path class="fil15" d="M752.97 7549.42c-84.09,0 -133.29,78.37 -262.46,78.37 -179.55,0 -324.95,-145.41 -324.95,-324.95 0,-97.5 42.88,-184.92 110.82,-244.47l-0.06 0c77.17,-65.34 126.16,-162.92 126.16,-272.02 0,-168.31 -116.57,-309.25 -273.41,-346.57l0 -0.04c-63.68,-15.79 -116.03,-82.5 -142.59,-139.78l0 116.63c33.58,39.26 76.75,72.4 127.7,84.73 131.55,31.8 224.99,149.26 224.99,285.03 0,86.89 -38.49,167.56 -104.09,224.04 -85.21,73.37 -132.82,180.22 -132.82,292.45 0,214.48 173.76,388.25 388.25,388.25 55.46,0 103.87,-11.94 153.97,-35.01 26.81,-12.34 57.87,-31.64 85.61,-39.83 7.52,-2.22 15.02,-3.54 22.87,-3.54 49.71,0 89.9,40.18 89.9,89.89 0,11.26 -2.13,23.42 -4.65,34.37l-1.26 5.51 -0.43 8.72 63.38 0c4.06,-17.59 6.27,-34.18 6.27,-48.61 0,-84.65 -68.54,-153.19 -153.2,-153.19z"/>
     <path class="fil1" style="mask:url(#id21)" d="M217.25 7478.79c-32.7,-50.7 -51.69,-111.09 -51.69,-175.95 0,-34.24 5.29,-67.23 15.1,-98.22l-65.97 0c-8.2,31.77 -12.43,64.76 -12.43,98.22 0,63.35 15.17,123.13 42.06,175.95l72.93 0z"/>
     <path class="fil1" style="mask:url(#id23)" d="M322.52 7011.28c49.98,-61.32 79.96,-139.6 79.96,-224.93 0,-44.79 -8.26,-87.66 -23.34,-127.14l-69.06 0c18.7,38.69 29.1,81.9 29.1,127.14 0,86.89 -38.49,167.56 -104.09,224.04l-1.02 0.9 88.46 0z"/>
     <path class="fil1" d="M78.55 6636.37c-30.84,-1.33 -61.81,1.03 -92.07,7.09l0 88.8 2.24 -0.57c28.06,-7.18 57.17,-10.17 86.1,-8.92 163.14,7.06 290.49,145.91 283.45,309.05 -7.06,163.15 -145.91,290.49 -309.05,283.45 -20.41,-0.89 -40.7,-3.85 -60.51,-8.9l-2.23 -0.57 0 88.75c19.45,3.9 39.18,6.28 59.01,7.13 211.01,9.13 390.06,-155.11 399.19,-366.12 9.11,-211 -155.11,-390.07 -366.12,-399.18z"/>
     <path class="fil16" d="M78.16 6645.39c-31.46,-1.35 -62.17,1.23 -91.69,7.3l0 70.22c28.29,-7.23 58.09,-10.5 88.74,-9.18 168.36,7.28 299.37,150.11 292.1,318.48 -7.28,168.36 -150.12,299.36 -318.48,292.09 -21.46,-0.93 -42.32,-4.07 -62.35,-9.17l0 70.18c19.28,3.96 39.12,6.45 59.4,7.33 206.34,8.92 380.85,-151.13 389.77,-357.47 8.92,-206.34 -151.13,-380.85 -357.48,-389.77z"/>
     <path class="fil1" style="mask:url(#id25)" d="M366.21 7048.08c-9.91,104.38 -72.11,192.68 -159.18,239.81l0 53.3 44.9 0c101.82,-60.16 173.17,-167.37 182.89,-293.12l-68.61 0z"/>
     <path class="fil1" style="mask:url(#id27)" d="M83.94 6714.24c92.17,6.59 172.41,53.88 223.8,123.37l41.4 0 0 -58.21c-63.95,-76.57 -158.13,-127.42 -265.2,-133.67l0 68.52z"/>
     <path class="fil1" d="M216.26 6837.61c12.42,-29.39 30.94,-56.19 54.71,-78.48 12.14,-11.38 23.49,-23.39 34.06,-35.94 -28.25,-9.77 -53.31,-22.73 -68.56,-45.12 -6.69,7.51 -13.75,14.76 -21.16,21.7 -40.51,37.98 -69.74,85.67 -85.43,137.84l86.39 0z"/>
     <path class="fil17" d="M206.47 6837.61c12.9,-31.93 32.67,-61.03 58.32,-85.08l-0.04 0c11.75,-11.01 22.84,-22.7 33.21,-35.04 -7.97,-19.81 -25.95,-31.43 -53.28,-35.08 -7.3,8.31 -15.04,16.3 -23.2,23.95 -38.66,36.25 -66.74,81.61 -82.15,131.25 18.36,18.75 40.79,18.49 67.14,0z"/>
     <path class="fil1" style="mask:url(#id29)" d="M260.24 6756.9c1.49,-1.47 3,-2.92 4.54,-4.36l-0.04 0c18.53,-17.38 35.43,-36.46 50.45,-57.01 -7.92,-23.4 -18.84,-45.51 -32.33,-65.84 -16.5,28.04 -37.07,53.88 -61.38,76.67 -11.49,10.78 -22.06,22.36 -31.63,34.62l0 15.92 70.39 0zm104.09 -149.95c16.38,-40.88 26.33,-85.02 28.59,-131.19l-63.39 0c-1.34,23 -4.96,45.62 -10.73,67.57 17.38,19.5 32.65,40.83 45.53,63.62z"/>
     <path class="fil1" d="M306.72 7329.77c-4.62,3.7 -9.14,7.51 -13.56,11.42l64.43 -19.94 38.59 19.94c3.35,-8.16 6.32,-17.47 8.88,-28.36 6.26,-26.64 5.44,-54.57 -2.22,-80.82 -14.21,-48.61 -53.89,-81 -96.53,-103.85 -8.1,-5.34 -15.82,-11.11 -23.13,-17.27l-26.11 23.93c-9.55,12.43 -36.03,1.62 -43.54,15.28l0 7.43c14.65,14.3 30.79,27.31 48.28,38.76l3.02 1.95 2.48 1.33c21.72,11.73 50.09,30.26 57.41,55.29 7.72,26.41 0.85,54.91 -17.98,74.91z"/>
     <path class="fil18" d="M215.44 7146.63c15.4,15.65 32.55,29.77 51.3,42.1l2.36 1.55 2.48 1.34c24.19,12.97 53.65,32.85 61.79,60.7 8.71,29.77 0.85,61.76 -20.53,84.12 -1.95,1.55 -3.9,3.13 -5.82,4.75l79.27 0c3.8,-8.58 7.16,-18.53 9.95,-30.43 5.72,-24.35 5.41,-50.48 -2.11,-76.21 -13.78,-47.09 -53.5,-77.74 -92.63,-98.73 -11.33,-7.44 -22.01,-15.79 -31.95,-24.93l-30.45 0c-8.74,11.39 -16.64,23.32 -23.67,35.73z"/>
     <path class="fil1" style="mask:url(#id31)" d="M128.12 6966.3c4.87,38.98 16.98,76.3 35.37,110.19 13.13,-18.96 28.03,-36.81 44.56,-53.33 -7.49,-17.99 -12.92,-37.02 -16.03,-56.86l-63.9 0zm87.32 180.33c15.39,15.65 32.56,29.78 51.3,42.1l2.36 1.55 2.48 1.34c2.36,1.26 4.78,2.59 7.21,3.99l43.39 0 0 -47.7c-6.8,-4.36 -13.75,-8.37 -20.67,-12.09 -17.94,-11.78 -34.24,-25.8 -48.54,-41.7 -14.4,16.23 -26.95,33.84 -37.53,52.5z"/>
    </g>
   </g>
  </g>
  <polygon class="fil19" points="5531.32,7726.29 -0,7726.29 -0,0 5531.32,0 "/>
 </g>
</svg>
