<?xml version="1.0" encoding="UTF-8"?>
<!DOCTYPE svg PUBLIC "-//W3C//DTD SVG 1.1//EN" "http://www.w3.org/Graphics/SVG/1.1/DTD/svg11.dtd">
<!-- Creator: CorelDRAW 2020 (64 Bit) -->
<svg xmlns="http://www.w3.org/2000/svg" xml:space="preserve" width="63mm" height="88mm" version="1.1" style="shape-rendering:geometricPrecision; text-rendering:geometricPrecision; image-rendering:optimizeQuality; fill-rule:evenodd; clip-rule:evenodd"
viewBox="0 0 6285.77 8780.13"
 xmlns:xlink="http://www.w3.org/1999/xlink"
 xmlns:xodm="http://www.corel.com/coreldraw/odm/2003">
 <defs>
  <style type="text/css">
   <![CDATA[
    .fil0 {fill:none}
    .fil1 {fill:#7E0000}
   ]]>
  </style>
 </defs>
 <g id="Camada_x0020_1">
  <metadata id="CorelCorpID_0Corel-Layer"/>
  <rect class="fil0" x="0" y="0" width="6285.77" height="8780.13"/>
  <path class="fil1" d="M4421.01 527.51l41 71.02 -41 70.99c-855.42,-0.41 -1710.89,-0.33 -2566.3,0l-40.99 -71.02 40.99 -70.99c855.39,0.36 1710.89,0.21 2566.3,0z"/>
  <path class="fil1" d="M4047.82 8246.14l48.16 -96.32 48.43 96.86c-0.28,0 -0.56,0 -0.83,0.01l-0.02 0c-0.27,0 -0.54,0.01 -0.81,0.03l-0.03 0c-17.28,0.88 -31.02,15.16 -31.02,32.66 0,6.58 1.95,12.69 5.28,17.82l0.01 0c5.47,8.4 14.7,14.13 25.29,14.81l0.01 0c0.7,0.05 1.41,0.07 2.12,0.07 18.06,0 32.7,-14.64 32.7,-32.7 0,-6.2 -1.73,-11.99 -4.72,-16.92l107.5 -6.46 -59.65 90.37c-0.14,-0.24 -0.28,-0.48 -0.43,-0.71l-0.01 -0.02c-0.14,-0.23 -0.28,-0.46 -0.43,-0.68 -9.39,-14.55 -28.65,-19.32 -43.8,-10.57 -5.7,3.29 -10.03,8.03 -12.8,13.49l0 0c-4.54,8.95 -4.88,19.82 -0.15,29.34l-0.01 0c0.31,0.62 0.64,1.23 0.99,1.84 9.03,15.64 29.03,21 44.67,11.97 5.37,-3.1 9.52,-7.48 12.3,-12.54l59.34 89.87 -108.09 -6.49c0.13,-0.24 0.27,-0.48 0.4,-0.72l0.01 -0.02c0.13,-0.24 0.25,-0.47 0.38,-0.71l0.01 -0.03c7.88,-15.41 2.38,-34.44 -12.77,-43.19 -5.7,-3.29 -11.98,-4.67 -18.1,-4.34l-0.25 0.02 -0.22 0.01 0 0c-0.3,0.02 -0.6,0.05 -0.9,0.08l-0.04 0 -0.12 0.01c-9.45,0.97 -18.36,6.02 -23.95,14.42l0 0 -0.17 0.26 -0.04 0.07 -0.01 0.01 -0.04 0.06 -0.34 0.54 -0.04 0.07 -0.03 0.04 -0.02 0.03c-0.14,0.23 -0.27,0.46 -0.41,0.7 -9.03,15.63 -3.67,35.64 11.97,44.67 0.24,0.14 0.49,0.28 0.73,0.41l0.03 0.01 0.61 0.33 0.24 0.12 0.57 0.28 0.05 0.02 0.06 0.03c0.47,0.23 0.93,0.44 1.4,0.63l0.05 0.02 0.11 0.05 0.63 0.25 0.03 0.01 0.13 0.06 0.53 0.19 0.11 0.04 0.03 0.01 0.71 0.25 0.03 0.01 0.18 0.06 0.48 0.15 0.2 0.07 0.65 0.19 0.04 0.01 0.23 0.06 0.45 0.12 0.09 0.02 0.02 0.01 0.1 0.02 0.58 0.14 0.1 0.02 0.01 0 0.09 0.02 0.45 0.1 0.24 0.05 0.03 0 0.05 0.02 0.62 0.11 0.09 0.02 0.05 0.01 0.03 0 0.62 0.1 0.09 0.02 0.07 0.01 0.01 0 0.53 0.07 0.18 0.02 0.1 0.02 0.27 0.03 0.27 0.03 0.15 0.01 0.12 0.01 0.55 0.05 0.13 0.01 0.14 0.01 0.55 0.03 0.24 0.02 0.57 0.02 0.2 0 0.48 0.01 0.39 0 0.01 0 0.28 0 0.27 -0.01 -48.17 96.32 -48.42 -96.85 0.01 0 0.02 0 0.01 0 0.01 0 0.02 0 0.01 0c0.25,0 0.49,0 0.74,-0.01l0.01 0 0.02 0 0.01 0 0.01 0 0.01 0 0.02 0 0.63 -0.02 0.01 0 0.01 -0.01 0.01 0 0.02 0 0.01 0 0.01 0 0.02 0 0.01 0 0.01 0 0.01 0 0.04 0c0.78,-0.04 1.56,-0.11 2.32,-0.2l0.08 -0.01 0.49 -0.07 0.35 -0.05 0.34 -0.05 0.45 -0.08 0.45 -0.08 0.33 -0.06 0.51 -0.11 0.26 -0.06 0.54 -0.13 0.23 -0.05 0.43 -0.12 0.41 -0.11 0.28 -0.08 0.47 -0.14 0.35 -0.11 0.39 -0.13 0.38 -0.13 0.35 -0.12 0.4 -0.15 0.34 -0.13 0.38 -0.15 0.37 -0.15 0.37 -0.16 0.31 -0.13 0.45 -0.21 0.23 -0.1 0.48 -0.23 0.24 -0.12 0.41 -0.21 0.34 -0.18 0.34 -0.19 0.33 -0.18 0.35 -0.2 0.32 -0.19 0.34 -0.21 0.38 -0.23 0.25 -0.16 0.37 -0.25 0.3 -0.2 0.39 -0.27 0.23 -0.16 0.39 -0.28 0.26 -0.19 0.3 -0.23 0.31 -0.25 0.37 -0.29 0.22 -0.18 0.29 -0.24 0.34 -0.29 0.01 -0.01 0.52 -0.46 0.01 -0.01 0.34 -0.32 0.22 -0.21 0.04 -0.03 0.52 -0.52 0.02 -0.01 0.53 -0.55 0.52 -0.56 0.02 -0.01 0.49 -0.56 0.03 -0.03 0.16 -0.19c0.28,-0.32 0.55,-0.66 0.82,-1l0.02 -0.03 0.41 -0.52 0.03 -0.05 0.23 -0.31 0.23 -0.32 0.19 -0.26 0.27 -0.4 0.14 -0.2 0.29 -0.45 0.12 -0.19 0.32 -0.51 0.07 -0.11 0.31 -0.52 0.13 -0.24 0.26 -0.47 0.09 -0.16 0.27 -0.52 0.13 -0.24 0.21 -0.42 0.16 -0.35 0.15 -0.31 0.19 -0.42 0.14 -0.32 0.15 -0.36 0.17 -0.41 0.12 -0.31 0.15 -0.39 0.14 -0.38 0.12 -0.36 0.14 -0.39 0.11 -0.34 0.13 -0.41 0.12 -0.4 0.09 -0.33 0.11 -0.42 0.1 -0.38 0.1 -0.4 0.09 -0.36 0.09 -0.41 0.08 -0.4 0.07 -0.37 0.08 -0.4 0.08 -0.49 0.04 -0.3 0.06 -0.41 0.06 -0.44 0.03 -0.29 0.06 -0.51 0.03 -0.32 0.04 -0.49 0 -0.03 0.05 -0.75c0.01,-0.28 0.02,-0.56 0.03,-0.85l0 -0.02c0.01,-0.28 0.01,-0.55 0.01,-0.82 0,-0.57 -0.01,-1.13 -0.04,-1.69l0 -0.03c-0.01,-0.25 -0.03,-0.51 -0.05,-0.76l-0.01 -0.1 -0.06 -0.72 -0.01 -0.05 0 -0.06 -0.08 -0.68 -0.01 -0.09 0 -0.03 -0.11 -0.73 0 -0.05 -0.02 -0.1c-0.03,-0.22 -0.07,-0.44 -0.11,-0.66l-0.01 -0.05 0 -0.03c-0.05,-0.25 -0.09,-0.49 -0.14,-0.74l-0.02 -0.07c-0.05,-0.25 -0.1,-0.49 -0.16,-0.74l-0.01 -0.02 0 -0.03 -0.16 -0.64 -0.05 -0.21 -0.17 -0.63 -0.02 -0.06 0 -0.01 -0.02 -0.05 -0.19 -0.66 -0.02 -0.06 -0.06 -0.17 -0.17 -0.55 -0.02 -0.04 -0.01 -0.04 -0.22 -0.61 -0.03 -0.11 -0.03 -0.07c-0.17,-0.45 -0.35,-0.91 -0.54,-1.36l-0.08 -0.18 -0.23 -0.53 -0.03 -0.08 -0.04 -0.09 -0.27 -0.56 -0.01 -0.02 -0.02 -0.05 -0.04 -0.08 -0.29 -0.58 -0.04 -0.08 -0.34 -0.66 -0.01 -0.01 -0.02 -0.04 -0.29 -0.51 -0.08 -0.14 -0.03 -0.06 -0.31 -0.52 -0.06 -0.1 -0.01 -0.01 -0.05 -0.09 -0.29 -0.46 -0.07 -0.11 -0.05 -0.08 -0.08 -0.12 -0.26 -0.39 -0.02 -0.04 -0.18 -0.26 -0.12 -0.17c-5.27,-7.54 -13.63,-12.77 -23.24,-13.82l0 0c-0.49,-0.06 -0.99,-0.1 -1.49,-0.13l0 -0.01c-0.7,-0.04 -1.41,-0.06 -2.12,-0.06 -18.06,0 -32.7,14.64 -32.7,32.7 0,6.2 1.72,11.98 4.71,16.92l-107.5 6.45 59.66 -90.36c0.14,0.24 0.28,0.47 0.42,0.71l0.01 0.01c0.14,0.23 0.29,0.46 0.43,0.69 9.39,14.55 28.65,19.31 43.81,10.56 5.7,-3.28 10.02,-8.02 12.79,-13.48l0 0c4.54,-8.95 4.89,-19.82 0.16,-29.34l0 0c-0.31,-0.62 -0.64,-1.24 -0.99,-1.85 -9.03,-15.63 -29.02,-20.99 -44.66,-11.96 -5.37,3.09 -9.52,7.48 -12.3,12.54l-59.34 -89.88 108.09 6.5c-0.14,0.24 -0.27,0.48 -0.4,0.72l-0.01 0.01c-0.13,0.24 -0.25,0.48 -0.38,0.72l-0.01 0.03c-7.88,15.4 -2.38,34.44 12.77,43.19 5.7,3.28 11.97,4.67 18.1,4.33l0 0c10.01,-0.55 19.59,-5.68 25.46,-14.53l0 -0.01 0.18 -0.25 0.04 -0.07 0.01 -0.01 0.03 -0.06 0.35 -0.55 0.04 -0.06 0.02 -0.04 0.02 -0.03c0.14,-0.23 0.28,-0.46 0.42,-0.7 9.03,-15.64 3.67,-35.64 -11.97,-44.67 -0.24,-0.14 -0.49,-0.28 -0.74,-0.41l-0.02 -0.01c-0.21,-0.12 -0.43,-0.24 -0.65,-0.35l-0.07 -0.04 -0.04 -0.02 -0.04 -0.02 -0.61 -0.29 -0.06 -0.04 -0.06 -0.03c-0.46,-0.22 -0.92,-0.42 -1.39,-0.62l-0.06 -0.03 -0.11 -0.04 -0.61 -0.25 -0.05 -0.02 -0.13 -0.05 -0.53 -0.2 -0.11 -0.04 -0.02 0 -0.73 -0.26 -0.06 -0.02 -0.62 -0.2 -0.22 -0.06 -0.64 -0.19 -0.04 -0.01 -0.22 -0.06 -0.5 -0.13 -0.04 -0.01 -0.02 -0.01 -0.07 -0.02 -0.63 -0.14 -0.08 -0.03 -0.01 0 -0.09 -0.02 -0.59 -0.12 -0.1 -0.02 -0.03 -0.01 -0.05 -0.01 -0.64 -0.12 -0.07 -0.01 -0.05 -0.01 -0.02 0 -0.64 -0.11 -0.08 -0.01 -0.07 -0.01 -0.55 -0.07 -0.17 -0.03 -0.1 -0.01 -0.27 -0.03 -0.27 -0.03 -0.16 -0.02 -0.11 -0.01 -0.55 -0.04 -0.13 -0.01 -0.06 -0.01 -0.64 -0.04 -0.23 -0.01 -0.57 -0.02 -0.2 -0.01 -0.48 0 -0.4 0 -0.01 0 -0.27 0 -0.27 0z"/>
  <path class="fil1" d="M585.54 497.69l6.92 -2.56c3.24,-1.2 6.14,-3.15 8.92,-4.94 3.18,-2.06 6.33,-4.17 9.45,-6.29 4.61,-3.13 9.17,-6.3 13.76,-9.45 3.89,-2.66 7.31,-4.88 9.69,-8.73 6.58,-10.69 0.65,-33.68 -2.1,-43.28 -0.82,3.1 -1.55,6.59 -2.45,10.64 -0.52,2.3 -0.9,7.11 -1.26,9.44 -0.31,2 -0.65,4.65 -1.77,6.48 -1.7,2.74 -4.74,4.59 -7.54,6.52l-7.88 5.42c-0.86,-4.65 -2.15,-8.98 -3.86,-12.36 -2.68,4.54 -4.22,12.58 -4.75,18.23 -2.16,1.45 -4.32,2.89 -6.52,4.3 -2.01,1.3 -4.86,3.22 -7.15,4.07l-3.46 1.29 -3.47 -1.29c-2.29,-0.85 -5.15,-2.77 -7.15,-4.07 -2.2,-1.41 -4.36,-2.85 -6.52,-4.3 -0.53,-5.65 -2.07,-13.69 -4.74,-18.23 -1.73,3.38 -3.01,7.72 -3.87,12.36l-7.88 -5.42c-2.8,-1.93 -5.85,-3.77 -7.53,-6.52 -1.13,-1.83 -1.47,-4.48 -1.78,-6.48 -0.36,-2.32 -0.74,-7.13 -1.26,-9.44 -0.9,-4.05 -1.64,-7.53 -2.44,-10.64 -2.74,9.6 -8.68,32.6 -2.11,43.28 2.37,3.85 5.81,6.07 9.69,8.73 4.59,3.15 9.15,6.32 13.76,9.45 3.13,2.12 6.27,4.23 9.45,6.29 2.78,1.79 5.68,3.74 8.92,4.94l6.93 2.56zm-18.76 -184.01l18.76 -33.63 18.75 33.63 -18.75 33.63 -18.76 -33.63zm99.15 -44.41c4.29,11.79 4.63,53.51 -3.72,72.41l29.84 -6.87c-7.03,29.17 -23.03,51.45 -42.64,60.12 -21.48,11.48 -23.37,19.41 -28.03,40.27 -2.3,10.29 -0.54,9.96 -5,13.09 -0.35,-0.84 -0.73,-1.65 -1.13,-2.44l-7.26 -14.26 -8.21 13.91c-2.61,4.43 -4.41,11.44 -5.26,17.72 -4.32,2.86 -7.92,5.15 -8.98,5.54 -1.07,-0.39 -4.67,-2.67 -8.99,-5.54 -0.85,-6.28 -2.64,-13.29 -5.26,-17.72l-8.21 -13.91 -7.25 14.26c-0.41,0.8 -0.78,1.61 -1.14,2.44 -4.45,-3.13 -2.68,-2.8 -4.99,-13.09 -4.67,-20.86 -6.56,-28.78 -28.04,-40.27 -19.61,-8.67 -35.61,-30.95 -42.64,-60.12l29.85 6.87c-8.36,-18.9 -8.02,-60.61 -3.72,-72.41l0 0c38.99,15.3 59.13,56.96 76.55,88.99 1.29,2.25 2.55,4.45 3.79,6.55 18.39,-32.66 38.51,-79.09 80.44,-95.53zm-80.39 163.21l-0.05 -0.03 0 -28.58 0.05 -0.09 9.21 17.74c0.86,1.66 -0.07,3.9 -1.5,5.27 -3,2.87 -4.04,3.43 -7.71,5.69zm17.87 -39.99c9.56,-2.63 12.98,-10.53 17.99,-16.73 9.89,-12.26 22.76,2.41 13.49,12.08 -6.62,6.89 -18.74,9.45 -31.48,4.65zm-35.74 0c-9.56,-2.63 -12.99,-10.53 -17.99,-16.73 -9.89,-12.26 -22.76,2.41 -13.49,12.08 6.62,6.89 18.74,9.45 31.48,4.65z"/>
  <path class="fil1" d="M2803.87 8163.03c47.17,0 109.25,20.79 131.64,66.31 0.31,0.63 0.45,1.24 0.45,1.95l0 63.81c0,0.72 -0.14,1.33 -0.47,1.98 -5.19,10.39 -10.39,20.79 -15.58,31.19 -2.13,4.25 -4.34,8.69 -3.46,13.59 1.33,7.29 7.75,12.61 15.15,12.67 2.41,0.02 4.37,2 4.37,4.41l0 31.92c0,70.29 -71.37,134.5 -130.13,163.53 -1.28,0.64 -2.64,0.64 -3.92,0 -58.75,-29.03 -130.1,-93.25 -130.1,-163.53l0 -31.91c0,-2.41 1.96,-4.39 4.37,-4.41 7.16,-0.06 13.48,-5.07 15,-12.1 1.13,-5.13 -1.08,-9.69 -3.32,-14.17 -5.2,-10.4 -10.4,-20.8 -15.57,-31.2 -0.33,-0.64 -0.47,-1.25 -0.47,-1.97l0 -63.81c0,-0.71 0.14,-1.32 0.45,-1.95 22.38,-45.52 84.44,-66.31 131.6,-66.31zm-111.18 72.44l0 55.74c4.61,9.24 9.22,18.47 13.85,27.72 4.58,9.15 7.32,17.56 5.05,27.96 -2.36,10.86 -9.5,19.66 -18.9,24.49l0 19.47c0,58.75 61.22,113.86 111.18,141.01 49.98,-27.15 111.21,-82.26 111.21,-141.01l0 -19.48c-9.8,-5.04 -17.12,-14.4 -19.18,-25.81 -1.81,-9.96 0.97,-17.92 5.34,-26.64 4.59,-9.19 9.1,-18.73 13.84,-27.89l0 -55.56c-20.89,-35.96 -72.58,-51.55 -111.21,-51.55 -38.6,0 -90.29,15.59 -111.18,51.55z"/>
  <path class="fil1" d="M2709.19 8240.22l0 47.11c4.04,8.08 8.06,16.15 12.1,24.23 6.3,12.6 9.5,24.74 6.42,38.85 -0.47,2.14 -1.06,4.22 -1.78,6.25l77.96 0 0 -156.27c-31.51,0 -75.7,12.08 -94.71,39.83zm94.73 272.68c41.58,-24.7 94.72,-72.52 94.72,-122.05l0 -10.63c-7,-5.62 -12.48,-12.93 -15.86,-21.25l-78.85 0 0 153.93z"/>
  <path class="fil1" d="M1637.02 8231.38l-11.13 -49.99 -49.99 11.13c-1.42,-6.36 -86.55,139.58 -120.17,197.72l-51.47 -32.72 -8.54 43.43 47.52 30.21c-0.09,1.69 0.03,3.37 0.4,5.02 0.64,2.87 1.59,5.4 2.76,7.6l-51.37 80.46 -18.31 4.08 7.42 33.32 33.32 -7.42 -4.07 -18.28 50.73 -80.5c4.45,0.32 8.99,-0.66 12.95,-2.77l47.66 30.3c1.26,-0.28 9.23,-6.55 17.36,-12.87l18.35 -13.3c-0.31,-0.6 -1.78,-1.47 -3.94,-2.5l-45.62 -29c35.18,-51.35 118.89,-175.31 126.13,-193.93z"/>
  <path class="fil1" d="M5327.86 8392.19l-0.01 0.1c8.83,7.32 19.95,10.1 31.1,10.1l-60.68 92.55 -61 -93.07c10.61,0 21.2,-3.02 29.6,-9.57l0.02 -0.11 60.97 0zm45.47 14.42l27.98 -26.41 -25.51 -5.95 -2.46 32.36zm-48.23 85.92l110.42 -124.82 15.7 38.28 -126.12 86.53zm-32.17 40.75l-150.4 -65.19 10.6 44.37 139.67 50.83 141.14 -51.37 10.6 -44.33 -151.61 65.69zm-27.08 -45.83l-84.06 -100.58 -15.68 38.3 99.74 62.28z"/>
  <path class="fil1" d="M5393.6 8157.94c58.42,0 111.99,73.53 112.42,182.89l0 0.01c-12.25,-77.2 -46.41,-132.77 -86.66,-132.77 -48.76,0 -88.58,81.5 -91.35,184.23l-31.08 5.64 -30.02 -5.64c3.79,-130.67 59.06,-234.36 126.7,-234.36z"/>
 </g>
</svg>
